<svg clip-rule="evenodd" fill-rule="evenodd" stroke-linejoin="round" stroke-miterlimit="1.41421" viewBox="0 0 126 21" xmlns="http://www.w3.org/2000/svg"><path d="m496.264 203.236c0-3.662 1.642-6.886 5.158-8.848 1.992-1.085 4.365-1.553 6.856-1.553 3.255 0 4.864.703 5.801.703.089.879.119 2.93.412 4.717-.118.322-.909.352-1.114.059-.939-2.754-2.784-4.131-5.51-4.131-4.658 0-6.913 3.867-6.913 8.498 0 4.19 1.434 6.68 3.339 7.969 1.406.938 2.929 1.114 4.015 1.114 1.668 0 2.02-.323 2.02-2.226v-1.847c0-1.582-.176-1.758-1.581-1.963l-1.29-.176c-.321-.176-.321-.85 0-1.026 2.08.059 3.517.088 4.953.088 1.407 0 2.841-.029 3.838-.088.235.176.235.85 0 1.026l-.674.118c-.878.146-1.054.439-1.054 2.021v1.641c0 1.231.058 1.816.613 1.934.118.117.09.615-.086.703-.498.088-1.262.177-2.051.439-1.026.323-3.545.703-5.187.703-1.992 0-3.692-.204-5.772-1.025-3.428-1.377-5.773-4.629-5.773-8.85zm31.675 9.875c6.301 0 10.58-3.837 10.58-10.226 0-5.948-4.192-10.05-10.287-10.05-6.124 0-10.459 4.483-10.459 10.284 0 6.126 4.277 9.992 10.166 9.992zm12.278-18.87c-.204-.235-.175-.938.118-1.025 1.378.058 2.842.087 4.044.087.996 0 1.846-.029 2.46-.087.294 1.318 2.2 3.544 4.836 6.68l2.461 2.902c1.29 1.524 2.141 2.549 2.814 3.223.116-.293.116-.792.116-1.319v-4.045c0-2.372-.116-4.57-.438-5.362-.265-.614-.909-.82-1.701-.936l-.791-.118c-.234-.235-.176-.849 0-1.025 1.583.058 2.725.087 3.928.087 1.083 0 2.139-.029 3.281-.087.175.176.234.79 0 1.025l-.529.088c-.76.117-1.318.352-1.581.966-.322.792-.44 2.99-.44 5.362v7.005c0 1.905 0 3.75.059 4.718-.205.351-1.026.674-1.729.674-.03 0-.995-1.495-2.373-3.194l-6.769-8.381c-1.7-2.082-2.668-3.311-3.196-3.751-.145.293-.145.791-.145 1.876v5.684c0 2.374.117 4.572.439 5.362.265.616.938.821 1.7.938l.821.117c.234.234.175.851 0 1.026-1.583-.058-2.755-.088-3.927-.088-1.083 0-2.169.03-3.282.088-.176-.175-.234-.792 0-1.026l.499-.087c.79-.147 1.376-.352 1.611-.968.323-.79.41-2.988.41-5.362v-7.443c0-1.612-.028-2.081-.204-2.49-.236-.498-.645-.85-1.671-.996zm-99.891 18.402c1.055 0 2.52.177 3.897.177 3.019 0 5.421-.382 7.415-1.379 3.368-1.669 5.244-4.834 5.244-8.76 0-3.664-2.11-7.121-5.949-8.498-2.022-.733-4.424-.967-6.827-.967-3.106 0-5.392.117-7.853.263-.352.029-.352.88-.058 1.026l.556.058c1.349.147 1.407.703 1.407 3.487v10.374c0 2.695-.176 2.93-1.495 3.135l-.908.146c-.235.148-.235.851 0 1.026 1.67-.058 3.165-.088 4.571-.088zm43.192-6.622c-.712.004-.8.053-.968.586l-1.142 3.399c-.175.586-.205.82-.205 1.055 0 .176.38.351 1.201.498l.879.146c.175.206.235.879-.059 1.026-1.025-.058-2.081-.058-3.311-.088-.779 0-1.365.053-2.226.076-.479.074-1.08.101-1.671.101-2.695 0-4.394-.967-5.684-3.077-.938-1.554-1.611-2.99-2.286-4.543-.351-.791-.82-1.025-1.553-1.025-1.025 0-1.083.058-1.083.644v3.605c0 2.695.175 2.901 1.494 3.135l.791.146c.205.148.205.851 0 1.026-1.553-.058-2.901-.088-4.308-.088-1.465 0-2.754.03-4.278.088-.234-.175-.234-.878 0-1.026l.791-.146c1.318-.234 1.495-.44 1.495-3.135v-10.374c0-2.93-.059-3.253-1.289-3.428l-.791-.117c-.294-.146-.294-.879.058-1.026 2.198-.146 4.484-.263 7.267-.263 2.491 0 4.63.381 5.744 1.054 1.699.996 2.579 2.462 2.579 4.337 0 2.608-1.76 3.721-3.107 4.395-.293.146-.293.324-.147.645 1.935 3.927 3.136 6.125 4.542 7.326.418.338.835.54 1.2.661l.148-.016c.703-.088 1.289-.323 1.787-1.466.498-1.172 1.055-2.578 1.847-4.688l2.664-7.15c.675-1.846 1.173-2.871 1.086-3.721 1.406-.323 2.489-1.758 2.548-1.758.382 0 .557.146.675.586.236.849.587 1.934 1.319 4.014l3.986 11.487c.614 1.758.879 2.432 1.962 2.608l1.114.175c.176.148.235.851-.029 1.026-1.407-.058-2.989-.088-4.513-.088-1.465 0-2.609.03-3.957.088-.322-.175-.38-.792-.058-1.026l.938-.146c.674-.118.791-.322.791-.498 0-.205-.205-.909-.556-1.993l-.791-2.52c-.143-.454-.366-.523-1.407-.527zm44.479-11.838c3.635 0 5.834 4.072 5.834 9.083 0 4.747-1.495 8.498-5.334 8.498-4.777 0-6.037-5.743-6.037-9.319 0-4.893 1.934-8.262 5.537-8.262zm-85.649 2.461c0-.909.029-1.465.205-1.7.176-.234.733-.381 1.523-.381 5.305 0 8.088 3.136 8.088 8.409 0 3.987-1.729 8.499-6.798 8.499-1.055 0-1.905-.264-2.432-.85-.527-.615-.586-1.67-.586-3.282zm44.51 7.824c.69-.013.807-.133.587-.851l-.763-2.372c-.41-1.261-.938-2.843-1.201-3.458-.234.674-.821 2.255-1.261 3.604l-.732 2.198c-.264.791-.117.879.617.879zm-21.448-8.41c0-1.407.058-1.495 1.26-1.495 2.285 0 3.838 1.7 3.838 4.336 0 1.729-.557 2.668-1.055 3.166-.557.557-1.171.82-2.227.82-1.728 0-1.816-.087-1.816-1.113z" fill="#00994d" transform="translate(-435.579 -192.835)"/></svg>