<svg clip-rule="evenodd" fill-rule="evenodd" stroke-linejoin="round" stroke-miterlimit="1.41421" viewBox="0 0 140 140" xmlns="http://www.w3.org/2000/svg"><g fill="#00994d" transform="matrix(.857101 0 0 .857101 -187.633 -277.934)"><path d="m250.581 357.56s2.124-4.833 6.593 1.173c0 0 3.589-6.914-2.123-6.167 0 0 3.587-4.015 6.15 1.039 0 0 6.152.951-.731 9.301 0 0 7.251.879 5.128-5.201 0 0 4.686 1.393 1.169 6.812 0 0 3.37 3.296-4.466 4.322 0 0-2.637.439-.733 12.818 0 0 1.097-3.444 4.833-2.636 0 0-7.249 4.834 2.052 8.202 0 0-1.32 1.173-2.271 4.979-.952 3.811-1.318 5.494-2.562 5.933 0 0 2.708-6.738-4.103-6.81 0 0-3.295.145-5.125 3.075 0 0 2.634-6.226.071-8.349-2.563-2.125-3.882.514-3.882.514s.146-4.617 5.419-3.518c0 0 2.199-10.4-.587-11.425 0 0-3.879 6.445-5.051.732 0 0-4.907 0-2.709-5.566 0 0 .072 3.954 3.733 3.075 3.665-.877 6.154-8.933-.805-8.933 0 0-3.074.071-2.269 3.001 0 0-3.078-4.467 2.269-6.371z"/><path d="m345.214 341.503c-4.575 5.312-9.2 10.842-8.497 17.633.804 7.778 15.284 3.622 15.284 3.622s-17.16 5.497-19.173 12.872c-2.01 7.375 13.275 7.24 13.275 7.24-14.882.672-17.966 9.384-17.966 9.384-3.353 10.46 6.836 13.141 6.836 13.141-5.496-1.476-9.517 1.206-9.517 1.206-7.245 4.692-.272 12.874-.272 12.874-5.093-4.293-8.18-3.489-8.18-3.489-8.848 1.611-4.824 13.944-4.824 13.944s-1.34-3.218-10.055-8.178c-8.714-4.957-13.81-22.122 2.547-33.921 16.36-11.801 16.759-48.404 16.759-48.404-.333 26.883 17.708 8.887 23.783 2.076z"/><path d="m273.164 459.024c-.806-7.51-4.693-9.788-4.693-9.788 6.703-4.292 1.609-8.713 1.609-8.713 4.291.537 4.826-3.22 4.826-3.22 2.95-7.239-4.425-8.714-4.425-8.714 10.996-.806 15.017 9.385 15.017 9.385-14.613 3.888-12.334 21.05-12.334 21.05z"/><path d="m286.392 364.981s-.066.038-.177.089c.113-.055.177-.089.177-.089z"/><path d="m272.584 363.592s1.235 1.851 4.088-.076c0 0 2.006-1.236 4.63.848 2.212 1.757 4.31.99 4.913.706-.629.305-2.963 1.299-6.69 1.299-4.394 0-6.247 3.471-3.857 5.477 0 0-5.165-1.774 0-6.017 0 0-4.24 1.312-4.857-2.313-.619-3.626 2.93-3.86 2.93-3.86s-3.084 1.314-1.157 3.936z"/><path d="m254.304 419.746s-4.318-1.542-6.634 3.162c0 0-1.309 2.932 1.464 2.852 0 0-7.558 2.392-3.857-5.242 0 0-2.388-1.777.774-4.322 3.163-2.543 6.013-1.927 6.635-1.387 0 0-5.402-8.023-9.028-.849 0 0-2.235-4.012 4.939-5.4 0 0 1.31-4.011 5.629.618 4.32 4.628 8.795-2.545 9.563-5.939 0 0-3.391 1.698-6.247-2.855 0 0 7.408 3.317 9.874-6.631 2.469-9.951 7.715-11.805 13.96-12.727 0 0-4.548-1.467-8.021-.233 0 0 2.007-3.085 8.717-2.006 0 0 2.314.695 3.857-1.233 0 0-4.396 1.157-5.243-3.471 0 0 4.162 6.555 11.03-3.78 0 0-2.624 1.618-7.483.462-4.861-1.156-3.011.846-5.172 1.081 0 0 1.545-4.012 6.868-4.629 0 0 3.239-1.002 3.856-3.162 0 0-4.088.693-7.173-2.16-3.087-2.854-5.71-3.241-7.097-1.62 0 0-1.464-7.404 13.732-2.545 0 0-1.389-4.551 3.47-3.24s5.243 2.855 6.94 2.314c1.698-.54 1.31-3.241-.849-3.008 0 0 5.631-3.394 5.168 3.625 0 0 3.395-2.923 3.395-4.855 0 0-.615 8.713 9.255 3.158 0 0-11.88 7.635-3.62 11.803 0 0-5.02.307-8.258-3.01 0 0 7.019 8.717 1.621 16.276 0 0 .849-5.014-1.466-7.175 0 0 1.466 10.03-7.79 18.282-9.255 8.254-4.934 26.38 2.158 29.618 0 0-4.163-.693-7.092-3.238 0 0 7.478 11.413 12.956 19.049 5.478 7.635 10.337 21.52 1.31 29.156-9.022 7.636-25.53 10.104-31.239-5.786-5.709-15.888 12.341-23.371 14.89-22.444 0 0 4.778 3.471 5.32 4.397 0 0-16.196 2.082-12.266 15.425 3.937 13.345 31.936 5.785 14.426-15.425 0 0-22.601-17.044-23.757-25.76 0 0-2.006 3.162-1.85 5.631 0 0-2.546-13.115 2.39-21.443 0 0-5.169 5.473-4.781 11.105 0 0-2.316-8.946-6.56 1.157 0 0 3.934-.541 4.398 1.619.463 2.163.543 4.013-1.155 4.089 0 0 4.011 4.395-3.858 6.482 0 0 5.013-5.942-1.311-6.327 0 0-5.942-.231-3.703 6.71 0 0 1.236 3.934 3.471-.541 0 0 1.08 3.242-1.85 4.475 0 0-2.239.849-3.242-1.851 0 0-7.25-.542-1.464-8.252z"/><path d="m337.394 407.667s7.516 12.234 10.832-15.987c0 0-2.619 21.753 9.612 21.229 0 0-20.008 7.515-8.297 12.229 0 0-15.203-.962-9.524 8.559 0 0-9.434-2.879-11.708 5.679 0 0-8.213-1.833-11.094 4.367 0 0-2.625-3.319-7.951-2.533l-2.096-3.402s10.395 3.581 24.812-10.049c0 0 10.481-7.946 5.414-20.092z"/></g><path d="m-.003447.0006h140.000230815v140.000230815h-140.000230815z" fill="none" stroke-width=".935299"/></svg>