<svg clip-rule="evenodd" fill-rule="evenodd" stroke-linejoin="round" stroke-miterlimit="1.41421" viewBox="0 0 140 140" xmlns="http://www.w3.org/2000/svg"><g fill="#f7a61b" fill-rule="nonzero" transform="matrix(.7613234851 0 0 .7613234851 -151.858851571 -240.2867047364)"><path d="m326.372 356.729c-.442 0-.817-.03-1.121-.074 2.119 1.077 4.105 1.622 5.917 1.622 3.015 0 5.104-1.46 6.753-2.888.788-.681 1.876-1.026 3.24-1.026 1.658 0 3.332.52 4.146.811-.895-.928-3.391-3.197-6.45-3.197-1.465 0-2.883.518-4.219 1.539-3.474 2.654-6.41 3.213-8.266 3.213"/><path d="m299.892 354.385.151.032-.061.141c-6.022 14.713-2.629 25.309 1.276 31.608 3.652 5.881 8.416 9.215 9.706 10.049-1.462-3.762.13-8.796.151-8.848l.106-.339.129.331c2.13 5.535 9.685 8.266 12.092 9.008-1.842-1.43-2.829-3.736-3.351-5.505-.619-2.122-.713-3.951-.715-3.97l-.029-.563.265.498c2.59 4.889 10.518 5.775 12.843 5.932-5.284-2.681-5.669-9.923-5.675-9.998l-.004-.141.137.01c.422.026.844.042 1.247.042 5.408 0 7.298-2.579 7.787-3.459-.601.234-1.211.353-1.82.353-3.406.001-5.68-3.651-5.778-3.807l-.137-.225.261.037c.558.072 1.097.108 1.596.108 4.901 0 5.917-3.395 6.127-4.852-.486.839-1.587 2.262-3.472 2.262-1.592 0-3.407-1.004-5.392-2.991-3.495-3.497-7.193-4.232-9.676-4.232-2.34 0-3.946.638-3.965.645l-.397.162.252-.352c1.469-2.059 3.595-3.24 5.837-3.24.618 0 1.248.086 1.876.261.43.12.896.183 1.368.183 1.826 0 3.499-.908 4.271-1.401-1.862.104-3.298-1.437-3.36-1.502-2.519-3.199-6.073-3.402-6.109-3.403l-.896-.043.871-.204c2.922-.688 8.541-4.608 9.215-6.13.294-.656 1.002-1.003 2.052-1.003.62 0 1.205.118 1.506.191-.702-2.676-2.285-4.03-4.709-4.03-3.31 0-7.06 2.56-7.099 2.587l-.152.104-.042-.179c-.61-2.54-1.094-3.573-3.457-3.573-1.974 0-5.355.81-10.167 2.115-2.295.622-4.44.939-6.37.939-5.588 0-8.077-2.652-8.839-3.691.695 8.021 10.449 10.064 10.55 10.083"/><path d="m293.623 445.006c2.4-.002 4.668-1.469 5.556-2.125-.584.092-1.15.137-1.684.137-3.026 0-4.78-1.418-5.722-2.608-1.019-1.289-1.318-2.558-1.331-2.611-.568-8.992 3.645-14.137 7.274-16.869 3.932-2.959 8.055-3.809 8.092-3.816 12.329-1.74 15.363-7.263 16.822-9.92.205-.375.381-.695.547-.933.154-.216.35-.328.591-.328 1.173 0 3.09 2.894 4.339 5.031-.026-.598.167-1.212.576-1.81 1.009-1.478 3.115-2.513 5.118-2.513 1.456 0 4.07.547 5.234 4.198.974 3.067 2.216 5.256 3.689 6.505.96.815 1.759.996 2.134 1.03-1.085-1.795.119-3.553.132-3.573l.101-.14.104.138c2.095 2.791 4.97 3.183 6.09 3.224-.791-.425-2.289-1.411-2.419-2.815-.106-1.116.682-2.243 2.335-3.346 1.136-.758 2.179-1.143 3.095-1.143 2.439 0 3.333 2.706 3.571 3.641 1.348-2.294 1.664-4.16.941-5.555-1.182-2.275-4.783-2.526-4.817-2.527l-.301-.018.225-.201c1.106-.986 2.209-1.484 3.28-1.484 2.539 0 4.145 2.727 4.603 3.617.812-2.323.734-4.219-.236-5.643-1.836-2.7-6.285-2.809-6.331-2.812l-.219-.003.112-.185c1.205-1.979 2.449-2.981 3.694-2.981 1.931 0 3.292 2.362 3.803 3.412.072-2.524-.425-4.312-1.508-5.457-1.133-1.196-2.91-1.691-5.471-1.515-5.996.412-8.58 15.735-8.605 15.89l-.024.117-.114-.011c-.078-.009-1.916-.245-4.101-4.98-2.147-4.643-6.825-8.461-6.871-8.499l.142-.204c2.954 1.79 6.03 2.166 8.094 2.166.778 0 1.412-.053 1.823-.104-.768-.376-1.503-1.317-1.813-2.394-.33-1.146-.092-2.147.659-2.746 1.768-1.419 3.756-6.799 3.776-6.852l.093-.251.136.229c1.452 2.47 4.473 2.804 5.516 2.843-1.257-1.142-1.731-3.906-1.751-4.032l-.044-.244.223.111c1.105.551 2.228.833 3.338.833 1.548 0 2.693-.553 3.178-.837-.805-.174-2.909-.752-3.532-2.172-.342-.78-.175-1.684.493-2.686.795-1.197 1.713-1.802 2.728-1.802 1.293 0 2.354.984 2.753 1.414.329-1.724.093-3.093-.696-4.074-1.252-1.55-3.559-1.718-4.493-1.718-.222 0-.361.01-.364.01l-.221.018.103-.2c1.002-1.95 2.269-2.936 3.76-2.936 1.724 0 3.232 1.319 3.823 1.909-.52-4.36-3.084-5.29-5.175-5.29-1.514 0-2.783.489-2.796.496l-.291.112.128-.283c.854-1.841 2.303-2.775 4.314-2.775 1.395 0 2.673.459 3.292.721-1.756-2.752-3.561-3.933-5.966-3.933-1.393 0-3.007.408-4.925 1.248-2.944 1.288-3.66 5.071-3.743 8.018-.091 3.219.534 6.168.54 6.198l.009.052-.025.043c-4.981 7.615-10.463 9.215-14.185 9.215-3.413 0-6.035-1.316-6.821-1.761 1.543 7.568 8.791 9.905 8.864 9.928l.472.146-.486.097c-.883.176-1.826.265-2.808.265h-.002c-5.762 0-11.532-3.068-12.799-3.785.85 3.137 5.371 7.721 5.416 7.77l.23.23-.322-.016c-9.824-.496-14.041-6.913-14.932-8.487-.385 3.281 1.048 8.76 1.066 8.815l.056.223-.217-.07c-3.443-1.097-8.559-7.04-9.414-8.058-.813 1.368-1.925 2.059-3.307 2.059-2.014 0-4.417-1.485-6.772-4.185-4.171-4.782-7.888-13.193-6.787-21.194 1.004-7.308.191-12.356-2.489-15.43-2.222-2.549-5.718-3.79-10.679-3.79-2.029 0-4.338.217-6.865.642-2.384.402-5.063.606-7.961.606-14.607 0-31.297-5.169-34.189-6.101 10.745 12.165 26.901 13.49 33.393 13.49 1.369 0 2.176-.065 2.184-.065l.821-.066-.762.307c-2.405.971-5.815 1.463-10.142 1.463-8.736 0-18.722-2.02-20.802-2.464 7.362 7.87 17.185 9.533 24.167 9.533 5.245 0 9.027-.945 9.063-.954l.722-.185-.62.413c-6.406 4.234-13.807 5.123-18.888 5.123-3.026 0-5.353-.316-6.332-.475 4.765 3.629 10.345 5.466 16.593 5.465 8.617-.001 15.517-3.572 15.587-3.606l.609-.319-.457.514c-3.175 3.58-7.811 6.148-13.783 7.635-4.804 1.196-9.129 1.326-10.765 1.326-.129 0-.243-.003-.342-.004 3.878 2.304 8.012 3.473 12.298 3.473 8.761 0 15.264-4.93 15.327-4.981l.386-.294-.194.444c-.915 2.137-3.992 4.635-9.144 7.419-3.12 1.692-6.094 2.979-7.103 3.404 2.4.556 4.808.838 7.165.838 9.598 0 15.555-4.674 15.612-4.72l.516-.412-.327.572c-2.628 4.6-11.259 10.591-12.867 11.682 1.229.211 2.464.319 3.676.319 9.152 0 14.933-6.088 14.989-6.151l.387-.412-.172.538c-1.296 4.041-7.067 8.836-8.34 9.859.626.052 1.247.078 1.852.078 4.857 0 8.175-1.742 10.107-3.201 2.091-1.586 3.048-3.19 3.058-3.207l.225.107c-1.294 3.722-5.922 7.911-6.931 8.792.704.139 1.417.21 2.121.21h.002c6.027-.002 10.182-5.072 10.223-5.122l.197-.239.026.306c.161 1.577-1.623 4.4-2.203 5.274 3.077-.756 8.311-4.956 8.367-5l.392-.317-.199.465c-4.004 9.387-16.112 12.797-23.27 12.797-2.031 0-3.844-.256-5.243-.733-1.808-.617-4.198-.96-6.733-.96-12.145 0-19.708 6.566-22.738 12.708-4.659 9.446-8.991 14.237-12.876 14.237-1.078 0-2.128-.372-3.123-1.109-2.061-1.522-3.505-4.871-3.767-8.736-.25-3.708.676-6.967 2.479-8.718.946-.915 1.801-1.38 2.539-1.38 1.399 0 1.977 1.596 2.156 2.261.432-.667.592-1.362.468-2.061-.284-1.668-2.043-2.864-2.061-2.877l-.154-.101.151-.106c.925-.645 1.794-.971 2.583-.971 1.873 0 2.782 1.851 3.063 2.561.584-1.134.71-2.164.375-3.066-.585-1.567-2.383-2.227-2.401-2.231l-.186-.066.134-.142c1.36-1.411 2.612-2.126 3.72-2.126 1.604 0 2.465 1.516 2.776 2.208.581-1.942.54-3.382-.117-4.288-.541-.747-1.498-1.125-2.839-1.125-1.106 0-2.073.272-2.085.274l-.246.07.097-.239c7.064-17.464-1.293-26.302-7.394-32.754-2.47-2.613-4.602-4.868-5.083-7.119-.309-1.441-.194-2.509.344-3.172.402-.501 1.049-.764 1.865-.764.195 0 .371.015.521.034-.565-.454-1.227-.689-1.94-.689-1.667 0-3.684 1.354-4.434 4.378-1.038 4.177 3.552 8.558 3.596 8.602l.251.235-.343-.018c-.147-.007-.296-.01-.435-.01-1.636 0-2.818.501-3.512 1.491-1.345 1.917-.523 5.162-.21 6.2.745-1.78 1.741-2.683 2.966-2.683 1.339 0 2.429 1.099 2.474 1.147l.08.081-.073.088c-2.087 2.463-2.823 4.533-2.186 6.153.811 2.071 3.683 2.889 4.989 3.16-1.332-.864-1.973-1.728-1.902-2.579.12-1.5 2.401-2.353 2.497-2.389l.04-.006c2.167-.08 3.729.796 4.627 2.584 2.962 5.892-2.247 21.072-6.156 26.334-3.05 4.105-5.891 14.045-3.592 20.904 1.08 3.217 3.122 5.289 6.075 6.155.79.232 1.589.348 2.379.348 9.028-.001 15.214-15.202 15.276-15.356 7.244-10.445 14.673-12.633 19.634-12.633 3.494 0 5.779 1.106 5.801 1.117l.126.062-.073.118c-6.604 10.352.114 21.923.184 22.038l.059.104-.098.065c-4.703 3.041-8.586 4.586-11.543 4.586-1.814 0-3.285-.581-4.375-1.721-1.889-1.979-2.085-5.033-2.094-6.073-1.754 2.14-2.317 4.303-1.672 6.434.501 1.654 1.578 2.665 1.587 2.677l.235.216h-.319c-3.003 0-5.125-2.786-5.67-3.586-1.547 4.285 2.014 7.412 2.049 7.443l.299.258-.391-.037c-.129-.01-.256-.016-.381-.016-3.139 0-4.831 3.667-5.217 4.617 4.554-1.125 7.586-.646 8.957 1.404 1.913 2.866-.055 7.708-.138 7.912-2.105 3.231-2.821 5.675-2.085 7.091.594 1.137 1.952 1.265 2.134 1.277 1.024-.316 1.924-.477 2.681-.477 2.241 0 2.64 1.407 2.712 1.894.97-.29 1.585-.783 1.825-1.464.504-1.406-.75-3.186-.764-3.203l-.146-.207.254.008c1.69.058 2.986.582 3.857 1.554 1.097 1.227 1.183 2.786 1.178 3.307 1.417-.415 2.34-1.109 2.74-2.068.663-1.588-.34-3.389-.35-3.41l-.123-.214.242.028c2.317.258 3.897 1.024 4.699 2.279.738 1.154.602 2.387.486 2.938.777-.491 2.974-2.324 1.212-6.592-1.165-2.824-3.613-4.256-7.283-4.256-3.298 0-6.406 1.21-6.437 1.219l-.197.078.03-.209c.782-6.169 2.932-10.633 6.384-13.275 2.845-2.175 5.946-2.631 8.051-2.631 1.244 0 2.035.16 2.07.167l.052.011.028.046c2.634 4.096 6.745 5.225 8.144 5.497-1.5-1.415-1.819-4.895-1.833-5.053l-.029-.314.236.206c3.398 2.987 6.854 3.614 9.157 3.614 1.062 0 1.901-.136 2.399-.243-2.54-.814-4.742-4.853-4.844-5.036l-.227-.426.409.259c.838.533 1.78.803 2.805.803"/><path d="m342.66 469.561c.884-1.393.044-3.209.034-3.23l-.14-.295.302.127c2.215.933 3.394 1.981 3.506 3.116.089.944-.589 1.673-.981 2.014.085.002.165.002.246.002 3.529 0 3.66-3.589 3.664-3.743.999-7.661-4.805-8.538-10.946-9.464-3.419-.514-6.953-1.047-9.044-2.902-2.953-2.62-3.558-6.459-3.543-9.218.01-2.981.728-5.381.735-5.405l.047-.152.14.081c1.014.616 2.144.926 3.356.926 2.016 0 3.771-.875 4.525-1.31-3.501-.026-4.439-3.7-4.45-3.738l-.043-.172.176.017c.333.03.659.045.981.045 4.985 0 7.703-3.685 8.531-5.03-1.524 1.024-3.041 1.544-4.523 1.544-3.753 0-6.038-3.361-6.059-3.397l-.142-.213.257.02c3.727.266 6.37-.586 7.853-2.518 1.61-2.097 1.441-4.975 1.23-6.385-.169.808-.608 1.797-1.453 2.678-.905.94-2.58 2.063-5.453 2.063-2.612 0-5.735-.922-9.276-2.741-3.979-2.036-8.07-3.069-12.165-3.069-7.201 0-12.237 3.238-13.13 3.85l4.564 3.334-.288.052c-8.026 1.511-9.814 9.277-10.089 10.789 5.139-2.901 9.893-4.375 14.133-4.375 5.967 0 9.655 2.892 11.698 5.321 2.207 2.629 4.296 7.148 3.647 10.856-.796 4.547-3.706 5.225-5.374 5.225-.524 0-.968-.064-1.274-.121 1.477 1.363 3.439 1.662 4.87 1.662.777 0 1.307-.094 1.311-.095l.296-.053-.167.25c-2.213 3.254-4.324 3.937-5.702 3.937-.21 0-.396-.014-.565-.043 1.54.934 3.01 1.408 4.389 1.408 2.055-.002 3.16-1.082 3.176-1.094l.198-.199.01.28c.172 3.046-1.653 4.332-2.471 4.756.718.127 1.401.187 2.031.187 4.035 0 4.984-2.605 4.991-2.631l.066-.183.141.129c2.78 2.513 4.171 4.779 4.118 6.732-.027 1.01-.44 1.656-.708 1.974 2.282-.042 3.695-.573 4.204-1.576.743-1.482-.751-3.533-.77-3.553l-.154-.212.264.012c2.107.102 3.45.691 3.989 1.751.687 1.356-.157 3.043-.477 3.594.38.023.742.035 1.09.035 2.369 0 3.923-.556 4.618-1.65"/></g><path d="m-.003447.0006h140.000230815v140.000230815h-140.000230815z" fill="none" stroke-width=".935299"/></svg>