<svg clip-rule="evenodd" fill-rule="evenodd" stroke-linejoin="round" stroke-miterlimit="1.41421" viewBox="0 0 116 21" xmlns="http://www.w3.org/2000/svg"><path d="m729.703 212.086c2.081.82 3.78 1.025 5.772 1.025 1.641 0 4.161-.38 5.187-.703.791-.264 1.553-.351 2.051-.439.176-.088.205-.586.088-.703-.556-.118-.615-.704-.615-1.935v-1.64c0-1.583.176-1.876 1.054-2.022l.675-.118c.234-.175.234-.849 0-1.025-.997.059-2.432.088-3.839.088-1.436 0-2.871-.029-4.952-.088-.322.176-.322.85 0 1.025l1.29.176c1.406.205 1.582.381 1.582 1.964v1.846c0 1.905-.352 2.227-2.022 2.227-1.084 0-2.608-.177-4.015-1.114-1.904-1.289-3.34-3.779-3.34-7.971 0-4.629 2.256-8.497 6.915-8.497 2.726 0 4.571 1.377 5.509 4.132.206.292.997.263 1.113-.059-.292-1.787-.321-3.838-.409-4.718-.938 0-2.549-.702-5.802-.702-2.492 0-4.865.468-6.857 1.553-3.517 1.962-5.157 5.185-5.157 8.848 0 4.22 2.344 7.474 5.772 8.85zm89.226-17.728c1.023.146 1.436.498 1.668.996.176.411.208.879.208 2.491v7.442c0 2.374-.09 4.572-.412 5.363-.234.616-.82.821-1.613.968l-.497.087c-.234.235-.175.849 0 1.026 1.113-.059 2.199-.088 3.284-.088 1.17 0 2.344.029 3.925.088.176-.177.235-.791 0-1.026l-.82-.117c-.761-.117-1.437-.322-1.701-.938-.321-.791-.439-2.989-.439-5.363v-5.684c0-1.085 0-1.583.147-1.876.528.44 1.493 1.671 3.194 3.751l6.767 8.381c1.378 1.699 2.344 3.194 2.377 3.194.701 0 1.522-.322 1.727-.674-.059-.967-.059-2.812-.059-4.718v-7.003c0-2.374.118-4.571.44-5.362.262-.616.821-.85 1.583-.967l.526-.088c.236-.234.176-.85 0-1.025-1.142.058-2.198.087-3.282.087-1.201 0-2.343-.029-3.927-.087-.175.175-.232.791 0 1.025l.792.117c.792.117 1.436.322 1.7.938.322.791.44 2.988.44 5.362v4.044c0 .527 0 1.026-.118 1.319-.675-.675-1.524-1.701-2.814-3.224l-2.46-2.901c-2.637-3.135-4.542-5.362-4.834-6.68-.615.058-1.465.087-2.462.087-1.203 0-2.668-.029-4.044-.087-.294.087-.322.791-.117 1.025zm-72.817 17.201-.791.146c-.235.147-.235.85 0 1.025 1.523-.058 2.813-.087 4.279-.087 1.406 0 2.753.029 4.307.087.205-.175.205-.878 0-1.025l-.792-.146c-1.318-.235-1.493-.44-1.493-3.136v-3.604c0-.586.058-.645 1.084-.645.732 0 1.201.235 1.552 1.026.674 1.553 1.349 2.989 2.287 4.542 1.289 2.11 2.988 3.077 5.683 3.077.91 0 1.846-.059 2.315-.264.017-.02.024-.053.038-.079.028.109.071.204.138.254 1.582-.058 3.048-.087 4.455-.087 1.376 0 2.813.029 4.395.087.234-.175.264-.849.03-1.025l-.822-.146c-1.347-.235-1.523-.44-1.523-3.195v-10.783c0-2.755.176-2.959 1.523-3.193l.822-.147c.234-.177.234-.85 0-1.026-1.583.058-3.049.088-4.425.088-1.407 0-2.873-.03-4.455-.088-.235.176-.235.849 0 1.026l.821.147c1.347.234 1.524.438 1.524 3.193v10.783c0 2.755-.177 2.96-1.524 3.195l-.821.146c-.068.051-.11.147-.139.257-.035-.07-.084-.13-.154-.169-.439-.029-1.201-.205-1.963-.82-1.406-1.202-2.608-3.4-4.542-7.326-.146-.322-.146-.499.147-.645 1.348-.674 3.106-1.788 3.106-4.395 0-1.875-.879-3.341-2.578-4.337-1.114-.674-3.253-1.055-5.744-1.055-2.784 0-5.069.117-7.267.264-.352.147-.352.879-.058 1.025l.79.118c1.231.175 1.289.498 1.289 3.428v10.373c0 2.696-.176 2.901-1.494 3.136zm40.087-18.256c1.874 0 3.544-.029 3.955-.088 0 .499 0 2.608.058 4.571-.117.323-.761.352-1.114.117-.322-1.201-.556-1.904-.85-2.285-.497-.615-1.376-.967-2.87-.967h-2.285c-.969 0-.969.058-.969 1.201v5.305c0 .79.029.878.82.878h2.256c1.555 0 1.877-.206 2.169-1.641l.148-.703c.204-.264.938-.235 1.113.029-.059.938-.088 2.022-.088 3.135 0 1.085.029 2.169.088 3.048-.175.263-.909.293-1.113.029l-.148-.703c-.292-1.407-.614-1.641-2.169-1.641h-2.256c-.791 0-.82.088-.82.879v3.956c0 2.726.176 2.96 1.494 3.135l1.086.147c.204.176.204.849 0 1.026-1.817-.059-3.253-.088-4.66-.088-1.347 0-2.812.029-4.571.088-.234-.177-.234-.85 0-1.026l.967-.147c1.318-.204 1.495-.409 1.495-3.135v-10.901c0-2.724-.177-2.988-1.495-3.193l-.586-.088c-.263-.176-.263-.909.059-1.026 1.26.059 2.725.088 4.131.088zm16.058 0c1.875 0 3.542-.029 3.955-.088 0 .499 0 2.608.056 4.571-.115.323-.759.352-1.112.117-.322-1.201-.556-1.904-.85-2.285-.499-.615-1.376-.967-2.871-.967h-2.284c-.969 0-.969.058-.969 1.201v5.305c0 .79.03.878.819.878h2.259c1.552 0 1.873-.206 2.169-1.641l.145-.703c.205-.264.938-.235 1.114.029-.06.938-.088 2.022-.088 3.135 0 1.085.028 2.169.088 3.048-.176.263-.909.293-1.114.029l-.145-.703c-.296-1.407-.617-1.641-2.169-1.641h-2.259c-.789 0-.819.088-.819.879v3.956c0 2.726.175 2.96 1.494 3.135l1.085.147c.205.176.205.849 0 1.026-1.819-.059-3.253-.088-4.66-.088-1.348 0-2.812.029-4.571.088-.234-.177-.234-.85 0-1.026l.967-.147c1.319-.204 1.495-.409 1.495-3.135v-10.901c0-2.724-.176-2.988-1.495-3.193l-.586-.088c-.262-.176-.262-.909.059-1.026 1.259.059 2.723.088 4.131.088zm6.269 18.256-.82.146c-.234.176-.234.85 0 1.025 1.582-.058 3.047-.087 4.453-.087 1.378 0 2.812.029 4.395.087.235-.175.265-.849.031-1.025l-.822-.146c-1.348-.234-1.524-.44-1.524-3.195v-10.783c0-2.754.176-2.96 1.524-3.194l.822-.146c.234-.177.234-.85 0-1.026-1.583.059-3.048.088-4.426.088-1.406 0-2.871-.029-4.453-.088-.234.176-.234.849 0 1.026l.82.146c1.347.234 1.523.44 1.523 3.194v10.783c0 2.755-.176 2.961-1.523 3.195zm-56.904-15.502c0-1.406.058-1.494 1.259-1.494 2.286 0 3.839 1.7 3.839 4.336 0 1.729-.557 2.667-1.055 3.165-.557.557-1.171.821-2.227.821-1.729 0-1.816-.088-1.816-1.114z" fill="#f7a61b" transform="translate(-723.931 -192.835)"/></svg>