<svg clip-rule="evenodd" fill-rule="evenodd" stroke-linejoin="round" stroke-miterlimit="1.41421" viewBox="0 0 124 21" xmlns="http://www.w3.org/2000/svg"><path d="m552.773 442.066c-2.695 0-4.366-.762-4.981-1.113-.559-.645-.937-2.754-.937-4.747.204-.381.878-.41 1.113-.087.587 1.904 2.549 4.6 5.039 4.6 2.169 0 3.164-1.494 3.164-2.96 0-2.373-2.227-3.781-3.984-4.659-2.109-1.055-4.424-2.813-4.424-5.714-.03-3.311 2.549-5.597 6.798-5.597.967 0 2.167.117 3.341.469.381.117.644.176.996.234.234.645.528 2.227.528 4.191-.149.351-.88.38-1.143.087-.499-1.494-1.76-3.633-3.869-3.633-1.933 0-2.988 1.26-2.988 2.726 0 1.347 1.2 2.578 2.667 3.34l1.933 1.025c1.817.967 4.13 2.667 4.13 5.891 0 3.604-2.959 5.947-7.383 5.947zm-25.084-15.588c0-2.726-.175-2.901-1.491-3.165l-.734-.147c-.235-.176-.264-.82.058-.996 1.407.058 2.872.088 4.278.088 1.436 0 2.872-.03 4.278-.088.235.176.235.82 0 .996l-.703.118c-1.317.234-1.495.468-1.495 3.194v6.769c0 3.428.381 7.208 4.836 7.208 3.751 0 4.892-3.281 4.892-7.297v-3.546c0-2.373-.117-4.6-.437-5.362-.266-.615-.91-.791-1.7-.937l-.792-.147c-.234-.235-.176-.82 0-.996 1.582.058 2.726.088 3.926.088 1.084 0 2.169-.03 3.283-.088.175.176.234.761 0 .996l-.527.118c-.763.175-1.319.351-1.584.966-.322.762-.44 2.989-.44 5.362v3.283c0 2.754-.263 5.275-1.873 7.062-1.29 1.377-3.43 2.109-5.804 2.109-2.225 0-4.22-.351-5.802-1.64-1.523-1.26-2.169-3.429-2.169-6.623zm-11.426 15.588c-2.695 0-4.366-.762-4.981-1.113-.558-.645-.937-2.754-.937-4.747.203-.381.878-.41 1.113-.087.585 1.904 2.549 4.6 5.04 4.6 2.167 0 3.163-1.494 3.163-2.96 0-2.373-2.226-3.781-3.984-4.659-2.109-1.055-4.426-2.813-4.426-5.714-.028-3.311 2.55-5.597 6.799-5.597.967 0 2.168.117 3.342.469.379.117.643.176.995.234.234.645.528 2.227.528 4.191-.148.351-.88.38-1.144.087-.497-1.494-1.758-3.633-3.868-3.633-1.932 0-2.987 1.26-2.987 2.726 0 1.347 1.199 2.578 2.665 3.34l1.934 1.025c1.818.967 4.131 2.667 4.131 5.891 0 3.604-2.96 5.947-7.383 5.947zm-26.959-3.78c0 1.231.059 1.817.616 1.935.117.116.087.614-.088.703-.498.088-1.26.175-2.052.439-1.025.323-3.544.703-5.186.703-1.993 0-3.693-.205-5.773-1.025-3.429-1.377-5.772-4.63-5.772-8.85 0-3.663 1.641-6.886 5.156-8.849 1.993-1.084 4.367-1.553 6.858-1.553 3.252 0 4.864.703 5.802.703.088.879.117 2.931.409 4.718-.117.322-.907.351-1.112.058-.939-2.754-2.785-4.131-5.509-4.131-4.661 0-6.916 3.868-6.916 8.497 0 4.191 1.435 6.682 3.341 7.971 1.407.938 2.931 1.114 4.013 1.114 1.671 0 2.024-.323 2.024-2.227v-1.846c0-1.582-.177-1.758-1.584-1.964l-1.29-.176c-.322-.175-.322-.85 0-1.025 2.081.059 3.518.088 4.953.088 1.407 0 2.843-.029 3.839-.088.235.175.235.85 0 1.025l-.674.117c-.879.147-1.055.441-1.055 2.023zm8.087-3.311c-.703 0-.792.029-.967.587l-1.142 3.399c-.177.586-.205.82-.205 1.054 0 .176.381.352 1.201.499l.879.146c.175.205.234.879-.058 1.026-1.026-.059-2.081-.059-3.311-.089-.997 0-1.671.089-3.019.089-.322-.176-.293-.792-.088-1.026l.791-.088c.704-.088 1.289-.322 1.787-1.465.499-1.172 1.055-2.578 1.846-4.689l2.668-7.15c.673-1.845 1.171-2.871 1.084-3.72 1.407-.323 2.491-1.759 2.549-1.759.381 0 .558.146.674.586.235.85.587 1.934 1.319 4.015l3.983 11.487c.618 1.758.881 2.431 1.964 2.607l1.115.176c.176.146.234.85-.029 1.026-1.408-.059-2.99-.089-4.513-.089-1.465 0-2.609.03-3.955.089-.323-.176-.382-.792-.059-1.026l.937-.146c.674-.118.791-.323.791-.499 0-.205-.205-.908-.556-1.992l-.792-2.521c-.145-.468-.38-.527-1.406-.527zm-37.36-5.099c0 .821.03.88.82.88h2.023c1.524 0 1.875-.206 2.168-1.612l.146-.733c.206-.234.939-.234 1.084.03-.059.937-.087 1.992-.087 3.106 0 1.113.028 2.168.087 3.106-.145.264-.878.292-1.084.029l-.146-.732c-.293-1.406-.644-1.641-2.168-1.641h-2.023c-.79 0-.82.029-.82.908v3.487c0 1.348.118 2.286.469 2.784.382.527.938.762 3.077.762 2.55 0 3.546-.088 5.157-3.399.235-.322.968-.205 1.084.146-.116 1.524-.82 3.897-1.231 4.689-1.552-.059-4.366-.089-6.769-.089h-3.809c-1.406 0-2.841.03-5.04.089-.234-.176-.234-.88 0-1.026l1.379-.205c1.317-.205 1.494-.381 1.494-3.077v-10.93c0-2.666-.177-2.842-1.494-3.106l-.734-.147c-.264-.175-.233-.849.058-1.025 1.378.058 2.813.088 4.22.088h6.213c1.874 0 3.546-.03 3.926-.088.029.468.235 2.578.381 4.542-.117.322-.791.381-1.084.117-.323-1.026-.732-1.905-1.115-2.315-.556-.557-1.434-.908-2.871-.908h-2.345c-.966 0-.966.058-.966 1.142zm-21.274-2.871c0-2.959-.058-3.311-1.289-3.457l-.908-.118c-.264-.146-.264-.792.058-.996 1.934-.147 4.22-.264 6.768-.264 2.492 0 4.133.292 5.363.761 1.788.675 3.575 2.228 3.575 5.07 0 4.806-4.835 5.51-6.387 5.51-.352 0-.616 0-.939-.03-.234-.147-.292-.616-.088-.792 2.434-.762 2.932-2.49 2.932-4.659 0-2.167-1.114-4.512-3.751-4.512-1.085 0-1.144.322-1.144 1.494v12.366c0 2.725.176 2.959 1.496 3.165l.938.147c.321.145.321.82 0 .996-1.643-.059-3.078-.089-4.485-.089-1.406 0-2.813.03-4.395.089-.322-.176-.381-.851-.058-.996l.82-.147c1.319-.235 1.494-.44 1.494-3.165zm61.974 6.417c.675 0 .821-.088.587-.85l-.762-2.373c-.409-1.26-.938-2.842-1.202-3.458-.234.674-.819 2.256-1.259 3.604l-.732 2.199c-.264.79-.117.878.615.878z" fill="#532d82" transform="translate(-436.228 -421.789)"/></svg>