<svg clip-rule="evenodd" fill-rule="evenodd" stroke-linejoin="round" stroke-miterlimit="1.41421" viewBox="0 0 135 21" xmlns="http://www.w3.org/2000/svg"><path d="m777.247 431.841c0 6.387-4.278 10.226-10.578 10.226-5.889 0-10.168-3.868-10.168-9.993 0-5.802 4.337-10.285 10.461-10.285 6.095 0 10.285 4.103 10.285 10.052zm37.653 4.776c0 1.904 0 3.75.058 4.717-.204.351-1.024.674-1.728.674-.03 0-.996-1.494-2.373-3.194l-6.769-8.381c-1.701-2.08-2.667-3.31-3.194-3.751-.146.294-.146.792-.146 1.876v5.684c0 2.375.116 4.572.439 5.363.264.616.938.82 1.698.938l.821.117c.235.234.177.85 0 1.025-1.581-.058-2.753-.087-3.925-.087-1.085 0-2.169.029-3.283.087-.175-.175-.234-.791 0-1.025l.498-.088c.791-.147 1.378-.351 1.612-.967.323-.791.411-2.988.411-5.363v-7.442c0-1.611-.029-2.081-.207-2.491-.233-.497-.643-.85-1.668-.996l-.821-.117c-.205-.235-.176-.938.118-1.026 1.376.059 2.841.088 4.043.088.997 0 1.845-.029 2.461-.088.293 1.318 2.198 3.546 4.835 6.681l2.461 2.902c1.29 1.523 2.139 2.549 2.814 3.223.116-.294.116-.792.116-1.319v-4.044c0-2.374-.116-4.571-.439-5.362-.264-.615-.909-.82-1.7-.938l-.791-.117c-.233-.235-.175-.85 0-1.026 1.582.059 2.726.088 3.926.088 1.085 0 2.14-.029 3.283-.088.176.176.234.791 0 1.026l-.528.088c-.761.117-1.319.352-1.582.967-.323.791-.44 2.988-.44 5.362zm14.007 4.013c1.758-.234 2.432-.936 3.399-2.256.849-1.113 2.43-3.398 3.691-5.274.264-.381.411-.732.411-.909 0-.117-.147-.498-.527-1.025-.967-1.435-2.814-4.337-4.191-6.3-.673-.967-1.289-1.348-2.608-1.582l-.498-.088c-.264-.235-.264-.85.03-1.026.937.059 2.783.088 4.571.088 2.373 0 3.545-.029 4.452-.088.323.147.323.791.118 1.026l-.644.117c-.469.088-.997.235-.997.44 0 .263.118.527.469 1.143.793 1.376 1.846 2.988 2.755 4.307 1.084-1.641 2.05-3.076 2.96-4.629.321-.528.321-.733.321-.88 0-.088-.204-.235-.585-.293l-1.172-.205c-.235-.206-.235-.879.087-1.026.909.059 1.846.088 3.223.088 1.407 0 2.609-.029 3.547-.088.292.147.321.762.117 1.026l-1.231.176c-.616.087-1.144.205-1.67.733-1.407 1.434-2.696 3.369-4.073 5.244-.293.41-.588.85-.588.996 0 .148.119.469.412.909 2.197 3.399 3.634 5.597 4.689 7.179 1.024 1.553 1.757 1.963 2.87 2.11l.909.117c.206.205.206.821-.088 1.025-1.29-.058-2.198-.087-4.57-.087-2.022 0-3.342.029-4.924.087-.264-.116-.381-.878-.088-1.025l.79-.088c.734-.087 1.086-.234 1.086-.41 0-.235-.117-.498-.849-1.729-.44-.791-2.667-4.219-3.107-4.776-1.143 1.67-2.521 3.897-3.487 5.743-.205.41-.264.616-.264.791 0 .176.323.323.939.381l.76.088c.265.205.236.909-.087 1.025-1.289-.058-2.608-.087-3.839-.087-.967 0-2.196.029-3.077.087-.292-.146-.381-.791-.116-.966zm-3.664-3.31c0 2.754.177 2.96 1.525 3.194l.82.146c.234.176.205.85-.029 1.025-1.582-.058-3.017-.087-4.396-.087-1.406 0-2.87.029-4.454.087-.234-.175-.234-.849 0-1.025l.82-.146c1.349-.234 1.524-.44 1.524-3.194v-10.783c0-2.755-.175-2.96-1.524-3.194l-.82-.147c-.234-.176-.234-.85 0-1.026 1.584.059 3.048.088 4.454.088 1.379 0 2.843-.029 4.425-.088.234.176.234.85 0 1.026l-.82.147c-1.348.234-1.525.439-1.525 3.194zm-84.77-5.011c-1.201 0-1.231.03-1.231.85v4.219c0 2.725.176 2.989 1.494 3.165l.938.117c.234.176.234.85 0 1.025-1.669-.058-3.135-.087-4.453-.087-1.408 0-2.872.029-4.367.087-.235-.175-.235-.849 0-1.025l.704-.088c1.348-.176 1.494-.469 1.494-3.194v-10.9c0-2.725-.146-3.019-1.494-3.194l-.704-.088c-.235-.176-.235-.85 0-1.026 1.436.059 2.959.088 4.367.088 1.318 0 2.784-.029 4.072-.088.235.176.235.85 0 1.026l-.615.088c-1.26.175-1.436.469-1.436 3.194v3.399c0 .85.03.879 1.231.879h6.095c1.23 0 1.23-.029 1.23-.879v-3.399c0-2.725-.146-2.96-1.494-3.165l-.79-.117c-.236-.176-.236-.85 0-1.026 1.611.059 3.047.088 4.453.088 1.435 0 2.783-.029 4.131-.088.235.176.235.85 0 1.026l-.586.088c-1.347.204-1.523.469-1.523 3.194v10.9c0 2.725.176 2.93 1.523 3.165l.704.117c.235.176.235.85 0 1.025-1.466-.058-2.901-.087-4.249-.087-1.465 0-2.901.029-4.308.087-.234-.175-.234-.849 0-1.025l.645-.088c1.348-.176 1.494-.469 1.494-3.194v-4.219c0-.82 0-.85-1.23-.85zm-22.856-5.304c0-2.959-.058-3.311-1.289-3.457l-.908-.117c-.264-.147-.264-.792.057-.998 1.935-.145 4.221-.263 6.769-.263 2.491 0 4.132.293 5.363.762 1.787.674 3.574 2.228 3.574 5.07 0 4.805-4.834 5.508-6.387 5.508-.351 0-.615 0-.938-.029-.233-.146-.293-.615-.088-.791 2.433-.762 2.931-2.491 2.931-4.659s-1.114-4.513-3.751-4.513c-1.083 0-1.142.323-1.142 1.495v12.365c0 2.725.175 2.96 1.493 3.165l.938.146c.322.147.322.821 0 .996-1.64-.058-3.076-.087-4.482-.087-1.407 0-2.814.029-4.397.087-.322-.175-.381-.849-.059-.996l.821-.146c1.32-.235 1.495-.44 1.495-3.165zm66.311 14.593c-1.406 0-2.842.029-5.04.087-.234-.175-.234-.878 0-1.025l1.377-.205c1.319-.205 1.494-.381 1.494-3.077v-10.929c0-2.667-.175-2.843-1.494-3.106l-.732-.147c-.262-.176-.234-.85.058-1.026 1.378.059 2.814.088 4.22.088h6.213c1.875 0 3.545-.029 3.925-.088.03.469.235 2.579.382 4.542-.118.322-.791.381-1.085.117-.323-1.025-.732-1.904-1.113-2.314-.556-.557-1.436-.909-2.872-.909h-2.344c-.967 0-.967.058-.967 1.143v5.128c0 .82.03.879.821.879h2.022c1.523 0 1.875-.205 2.168-1.612l.146-.732c.205-.234.938-.234 1.085.029-.059.937-.089 1.992-.089 3.106 0 1.113.03 2.168.089 3.106-.147.264-.88.293-1.085.029l-.146-.733c-.293-1.405-.645-1.64-2.168-1.64h-2.022c-.791 0-.821.03-.821.908v3.487c0 1.348.117 2.286.469 2.784.38.528.937.762 3.078.762 2.548 0 3.545-.088 5.156-3.399.234-.323.968-.205 1.084.146-.116 1.524-.82 3.897-1.231 4.688-1.553-.058-4.366-.087-6.768-.087zm-17.201-18.461c-3.602 0-5.538 3.37-5.538 8.263 0 3.576 1.26 9.319 6.037 9.319 3.839 0 5.334-3.752 5.334-8.498 0-5.011-2.198-9.084-5.833-9.084z" fill="#e51d26" transform="translate(-715.087 -421.789)"/></svg>