<svg clip-rule="evenodd" fill-rule="evenodd" stroke-linejoin="round" stroke-miterlimit="1.41421" viewBox="0 0 140 140" xmlns="http://www.w3.org/2000/svg"><path d="m1721.48 450.449c-.27 1.206-.02 3.563-1.65 5.068 3.27-1.254 5.57-5.615 5.77-6.008l-.91 2.309c-.96 2.71-2.39 6.225-7.02 6.936-.47 1.515-.99 3.858-.38 5.434.97 2.495 1.98 6.591 1.6 8.35-.63 2.999 2.02 2.286 2.44 1.303-.23.951-1.18 3.711-4.34 1.86l-.04.518c1.31 1.605 4.47 4.032 8.75-2.279 5.71-8.411 6.91-22.13 23.33-17.122 0 0-5.31-1.501-7.91 3.505 0 0 7.81-4.607 19.73 1.802 0 0 11.01 4.306 11.21-3.705 0 0-.8-4.306-4.5-2.903 0 0 6.9-5.507 9.1 4.405 0 0 1.41 12.015-19.22 8.612 0 0 6.01 6.907 15.72 0 0 0-6.41 10.213-19.73 3.804 0 0 7.02 9.112 14.63 3.103 0 0-2.51 10.716-19.23 3.305 0 0 3 6.408 10.72 3.705 0 0-5.61 5.007-14.53 1.202 0 0 6.01 5.607 14.02 2.404 0 0-9.01 9.011-21.83-.201 0 0 .61 4.505 7.41 5.507 0 0-8.61 2.303-14.32-4.306 0 0 2.31 8.21 12.62 6.709 0 0-13.02 6.808-19.52-6.008 0 0 .2 4.806 2.7 6.81 0 0-4.81-.302-7.61-6.209 0 0 2 10.013 10.02 8.512 0 0-2.11 3.202-5.71 2.101 0 0 2.7 1.804 4.7 1.303 2.01-.502 2.61 3.102 2.61 4.005 0 0 4.3-5.808 8.61-.602 0 0 1.2 2.404-.7 3.807 0 0 1.3-2.606-1.8-3.505 0 0-3.61.3-2.01 3.904 0 0 4.2.501 3.3 4.005 0 0 0 2.103-3 2.204 0 0 2.51-1.602.3-3.105 0 0-1.3-.8-2.5.101 0 0 0 4.007-3.91 2.803 0 0-2.9-.301-1.7-3.804 0 0 .4 2.502 2.4 1.501 2.01-1.001 1.11-5.327-2.1-5.405-3-.076-3.2 1.9-3.2 1.9s.82-6.983-6.33-6.757l-.55-.009-.01.244c.45 2.562 2.19 11.092 6 14.949 0 0-3.29 2.675-6.68-5.014l-.05.684c1.16 4.33 4.2 14.359 8.43 17.443 0 0-3.23 5.96-7.66-4.569 0 0 3.58 18.476 7.07 22.25 0 0-6.15-.691-9.64-17.935l.4 3.77c.71 6.975 1.63 21.637-1.99 29.062l-.82-2.007c-3.63-10.719-.71-30.967-.71-30.967-3.41 20.261-9.7 18.077-9.7 18.077 3.49-3.774 7.06-22.25 7.06-22.25-4.42 10.529-7.66 4.569-7.66 4.569 5.45-3.973 8.94-19.469 8.94-19.469-3.58 9.337-7.24 6.356-7.24 6.356 4.03-4.083 5.75-13.392 6.07-15.33l-.62-.01c-7.16-.226-6.33 6.758-6.33 6.758s-.2-1.979-3.2-1.902c-3.22.08-4.11 4.405-2.11 5.406s2.4-1.501 2.4-1.501c1.21 3.504-1.7 3.803-1.7 3.803-3.9 1.202-3.9-2.802-3.9-2.802-1.2-.901-2.51-.1-2.51-.1-2.2 1.503.3 3.104.3 3.104-3-.1-3-2.204-3-2.204-.9-3.505 3.31-4.004 3.31-4.004 1.6-3.606-2.01-3.905-2.01-3.905-3.1.901-1.8 3.505-1.8 3.505-1.91-1.403-.7-3.806-.7-3.806 4.3-5.207 8.61.6 8.61.6 0-.901.6-4.505 2.6-4.004 2.01.5 4.71-1.302 4.71-1.302-3.61 1.1-5.71-2.104-5.71-2.104 8.01 1.503 10.01-8.51 10.01-8.51-2.8 5.909-7.6 6.207-7.6 6.207 2.5-2.001 2.7-6.808 2.7-6.808-6.51 12.816-19.53 6.006-19.53 6.006 10.32 1.504 12.62-6.707 12.62-6.707-5.71 6.609-14.32 4.306-14.32 4.306 6.81-1.001 7.41-5.507 7.41-5.507-12.82 9.212-21.83.201-21.83.201 8.01 3.203 14.02-2.405 14.02-2.405-8.91 3.806-14.52-1.201-14.52-1.201 7.71 2.704 10.72-3.705 10.72-3.705-16.73 7.41-19.23-3.304-19.23-3.304 7.61 6.007 14.62-3.104 14.62-3.104-13.32 6.409-19.73-3.806-19.73-3.806 9.71 6.91 15.72 0 15.72 0-20.62 3.406-19.22-8.609-19.22-8.609 2.2-9.913 9.11-4.407 9.11-4.407-3.7-1.401-4.5 2.904-4.5 2.904.2 8.011 11.21 3.705 11.21 3.705 11.91-6.409 19.73-1.802 19.73-1.802-2.61-5.006-7.91-3.505-7.91-3.505 16.42-5.006 17.62 8.711 23.33 17.122 5.7 8.411 9.41 1.302 9.41 1.302-3.73 2.711-4.8-.382-5.05-1.4.42.981 3.08 1.696 2.44-1.304-.7-3.304 2.91-7.509 2.91-7.509-5.61.5-7.41-1.904-7.41-1.904s2.2 1.201 3.1-.199c.9-1.402 2.61-1.602 2.61-1.602-2.11.2-3.91-1.101-3.91-1.101-2.8-2.303-3.3.499-3.3.499-1.3-2.502.2-4.305.2-4.305 2.3-2.402 7.41-.2 7.41-.2-.5-1.301 0-1.902 3.5-1.201 3.5.7 5.01-.601 4.81-1.602-.21-1.001-1.41-1.203-1.41-1.203s.31-1.301 2.61.803c.62.568.93 1.149 1.06 1.698 1.72-.821 2.48-3.573 2.62-4.107 0-.031.01-.061.02-.091 0 0-.01.032-.02.091zm-33.32 1.495c2.07.191 6.58-1.162 8.34 4.375 1.65 5.22 5.49 5.576 6.07 5.6-4.56-.024-8.27-2.446-8.52-5.941-.22-3.203-5.04-3.93-5.89-4.034-.05-.004-.09-.009-.13-.015 0 0 .04.005.13.015z" fill="#e51d26" transform="translate(-1642.79 -435.856)"/><path d="m-.003447-.0005h140.000230815v140.000230815h-140.000230815z" fill="none" stroke-width=".935299"/></svg>