<?xml version="1.0" encoding="UTF-8" standalone="no"?><!DOCTYPE svg PUBLIC "-//W3C//DTD SVG 1.1//EN" "http://www.w3.org/Graphics/SVG/1.1/DTD/svg11.dtd"><svg width="100%" height="100%" viewBox="0 0 166 64" version="1.1" xmlns="http://www.w3.org/2000/svg" xmlns:xlink="http://www.w3.org/1999/xlink" xml:space="preserve" style="fill-rule:evenodd;clip-rule:evenodd;stroke-linecap:round;stroke-linejoin:round;stroke-miterlimit:1.5;"><path d="M165.129,7.807c0,-3.912 -3.175,-7.087 -7.086,-7.087l-150.236,0c-3.912,0 -7.087,3.175 -7.087,7.087l0,48.189c0,3.911 3.175,7.086 7.087,7.086l150.236,0c3.911,0 7.086,-3.175 7.086,-7.086l0,-48.189Z" style="fill:#fff;fill-opacity:0.74902;stroke:#3f43ad;stroke-width:1.44px;"/><g><path d="M18.548,26.713l4.852,0c3.124,0 6.891,-2.058 6.891,-6.506c0,-4.41 -3.197,-6.505 -6.616,-6.505l-5.127,0l0,13.011Zm2.316,-2.095l0,-8.821l2.113,0c2.83,0 4.888,1.249 4.888,4.41c0,3.161 -2.37,4.411 -5.274,4.411l-1.727,0Z" style="fill:#3f43ad;fill-rule:nonzero;"/><path d="M31.853,22.302c0,2.775 2.132,4.632 4.797,4.632c2.665,0 4.796,-1.857 4.796,-4.632c0,-2.775 -2.131,-4.631 -4.796,-4.631c-2.665,0 -4.797,1.856 -4.797,4.631Zm2.206,0c0,-1.378 0.974,-2.646 2.591,-2.646c1.617,0 2.591,1.268 2.591,2.646c0,1.379 -0.974,2.647 -2.591,2.647c-1.617,0 -2.591,-1.268 -2.591,-2.647Z" style="fill:#3f43ad;fill-rule:nonzero;"/><path d="M45.379,26.713l2.279,0l1.856,-6.028l0.037,0l2.095,6.028l2.187,0l2.996,-8.821l-2.224,0l-1.838,6.175l-0.037,0l-1.911,-6.175l-2.389,0l-1.783,6.175l-0.036,0l-1.912,-6.175l-2.389,0l3.069,8.821Z" style="fill:#3f43ad;fill-rule:nonzero;"/><path d="M58.133,26.713l2.206,0l0,-4.815c0,-1.176 0.569,-2.242 2.021,-2.242c1.544,0 1.617,1.617 1.617,2.591l0,4.466l2.206,0l0,-5.568c0,-1.801 -0.846,-3.474 -3.216,-3.474c-1.471,0 -2.298,0.754 -2.702,1.636l-0.037,0l0,-1.415l-2.095,0l0,8.821Z" style="fill:#3f43ad;fill-rule:nonzero;"/><rect x="68.719" y="12.82" width="2.205" height="13.893" style="fill:#3f43ad;fill-rule:nonzero;"/><path d="M73.019,22.302c0,2.775 2.132,4.632 4.797,4.632c2.665,0 4.796,-1.857 4.796,-4.632c0,-2.775 -2.131,-4.631 -4.796,-4.631c-2.665,0 -4.797,1.856 -4.797,4.631Zm2.206,0c0,-1.378 0.974,-2.646 2.591,-2.646c1.617,0 2.591,1.268 2.591,2.646c0,1.379 -0.974,2.647 -2.591,2.647c-1.617,0 -2.591,-1.268 -2.591,-2.647Z" style="fill:#3f43ad;fill-rule:nonzero;"/><path d="M90.184,26.713l1.985,0l0,-5.072c0,-1.25 0,-3.97 -3.768,-3.97c-1.396,0 -2.775,0.423 -3.749,1.415l1.158,1.158c0.588,-0.551 1.433,-0.919 2.352,-0.919c1.177,0 2.022,0.57 2.022,1.654l0,0.239l-0.551,0c-2.206,0 -5.55,0.202 -5.55,3.069c0,1.746 1.58,2.647 3.216,2.647c1.176,0 2.205,-0.441 2.83,-1.434l0.055,0l0,1.213Zm-0.129,-3.455c0,1.231 -0.716,2.022 -2.223,2.022c-0.717,0 -1.544,-0.35 -1.544,-1.158c0,-1.268 2.095,-1.36 3.308,-1.36l0.459,0l0,0.496Z" style="fill:#3f43ad;fill-rule:nonzero;"/><path d="M101.523,26.713l2.095,0l0,-13.893l-2.205,0l0,6.193l-0.056,0c-0.459,-0.57 -1.341,-1.342 -2.995,-1.342c-2.518,0 -4.264,2.022 -4.264,4.631c0,2.61 1.636,4.632 4.356,4.632c1.231,0 2.389,-0.478 3.032,-1.544l0.037,0l0,1.323Zm-5.219,-4.411c0,-1.378 0.974,-2.646 2.591,-2.646c1.617,0 2.591,1.268 2.591,2.646c0,1.379 -0.974,2.647 -2.591,2.647c-1.617,0 -2.591,-1.268 -2.591,-2.647Z" style="fill:#3f43ad;fill-rule:nonzero;"/><path d="M114.13,26.787l-0.423,1.047c-0.367,0.919 -0.661,1.305 -1.746,1.305c-0.386,0 -0.772,-0.092 -1.121,-0.221l-0.275,1.985c0.551,0.147 1.121,0.221 1.69,0.221c1.948,0 2.72,-0.864 3.363,-2.518l4.172,-10.714l-2.297,0l-2.205,6.12l-0.037,0l-2.463,-6.12l-2.426,0l3.768,8.895Z" style="fill:#3f43ad;fill-rule:nonzero;"/><path d="M120.654,22.302c0,2.775 2.132,4.632 4.797,4.632c2.664,0 4.796,-1.857 4.796,-4.632c0,-2.775 -2.132,-4.631 -4.796,-4.631c-2.665,0 -4.797,1.856 -4.797,4.631Zm2.205,0c0,-1.378 0.974,-2.646 2.592,-2.646c1.617,0 2.591,1.268 2.591,2.646c0,1.379 -0.974,2.647 -2.591,2.647c-1.618,0 -2.592,-1.268 -2.592,-2.647Z" style="fill:#3f43ad;fill-rule:nonzero;"/><path d="M140.355,17.892l-2.206,0l0,4.815c0,1.176 -0.569,2.242 -2.021,2.242c-1.544,0 -1.617,-1.617 -1.617,-2.591l0,-4.466l-2.206,0l0,5.568c0,1.801 0.846,3.474 3.216,3.474c1.471,0 2.298,-0.754 2.702,-1.636l0.037,0l0,1.415l2.095,0l0,-8.821Z" style="fill:#3f43ad;fill-rule:nonzero;"/><path d="M142.854,26.713l2.205,0l0,-4.723c0,-0.478 0.294,-2.224 2.371,-2.224c0.349,0 0.698,0.074 1.066,0.166l0,-2.132c-0.257,-0.074 -0.515,-0.129 -0.79,-0.129c-1.158,0 -2.132,0.607 -2.61,1.618l-0.037,0l0,-1.397l-2.205,0l0,8.821Z" style="fill:#3f43ad;fill-rule:nonzero;"/><path d="M17.859,48.766l2.315,0l0,-5.403l5.734,0l0,-2.095l-5.734,0l0,-3.418l6.083,0l0,-2.095l-8.398,0l0,13.011Z" style="fill:#3f43ad;fill-rule:nonzero;"/><path d="M28.408,48.766l2.315,0l0,-5.513l1.691,0l3.014,5.513l2.793,0l-3.455,-5.752c1.93,-0.276 3.014,-1.654 3.014,-3.529c0,-2.922 -2.352,-3.73 -4.852,-3.73l-4.52,0l0,13.011Zm2.315,-7.498l0,-3.528l2.003,0c1.195,0 2.628,0.183 2.628,1.727c0,1.691 -1.525,1.801 -2.83,1.801l-1.801,0Z" style="fill:#3f43ad;fill-rule:nonzero;"/><path d="M39.985,48.766l8.95,0l0,-2.095l-6.634,0l0,-3.528l5.973,0l0,-2.095l-5.973,0l0,-3.198l6.304,0l0,-2.095l-8.62,0l0,13.011Z" style="fill:#3f43ad;fill-rule:nonzero;"/><path d="M51.214,48.766l8.95,0l0,-2.095l-6.634,0l0,-3.528l5.972,0l0,-2.095l-5.972,0l0,-3.198l6.303,0l0,-2.095l-8.619,0l0,13.011Z" style="fill:#3f43ad;fill-rule:nonzero;"/><path d="M75.234,41.066c-0.846,-0.937 -2.077,-1.342 -3.198,-1.342c-2.665,0 -4.797,1.857 -4.797,4.632c0,2.775 2.132,4.631 4.797,4.631c0.772,0 2.279,-0.331 3.179,-1.232l-1.47,-1.58c-0.404,0.533 -1.029,0.827 -1.709,0.827c-1.617,0 -2.591,-1.268 -2.591,-2.646c0,-1.379 0.974,-2.647 2.591,-2.647c0.588,0 1.158,0.349 1.672,0.882l1.526,-1.525Z" style="fill:#3f43ad;fill-rule:nonzero;"/><path d="M76.097,44.356c0,2.775 2.132,4.631 4.797,4.631c2.665,0 4.797,-1.856 4.797,-4.631c0,-2.775 -2.132,-4.632 -4.797,-4.632c-2.665,0 -4.797,1.857 -4.797,4.632Zm2.206,0c0,-1.379 0.974,-2.647 2.591,-2.647c1.617,0 2.591,1.268 2.591,2.647c0,1.378 -0.974,2.646 -2.591,2.646c-1.617,0 -2.591,-1.268 -2.591,-2.646Z" style="fill:#3f43ad;fill-rule:nonzero;"/><path d="M87.749,52.956l2.205,0l0,-5.311l0.055,0c0.46,0.57 1.342,1.342 2.996,1.342c2.518,0 4.263,-2.022 4.263,-4.631c0,-2.61 -1.635,-4.632 -4.355,-4.632c-1.231,0 -2.389,0.478 -3.032,1.544l-0.037,0l0,-1.323l-2.095,0l0,13.011Zm7.314,-8.6c0,1.378 -0.974,2.646 -2.591,2.646c-1.617,0 -2.591,-1.268 -2.591,-2.646c0,-1.379 0.974,-2.647 2.591,-2.647c1.617,0 2.591,1.268 2.591,2.647Z" style="fill:#3f43ad;fill-rule:nonzero;"/><path d="M101.9,48.84l-0.423,1.047c-0.368,0.919 -0.662,1.305 -1.746,1.305c-0.386,0 -0.772,-0.092 -1.121,-0.22l-0.276,1.984c0.552,0.147 1.121,0.221 1.691,0.221c1.948,0 2.72,-0.864 3.363,-2.518l4.172,-10.714l-2.297,0l-2.206,6.12l-0.036,0l-2.463,-6.12l-2.426,0l3.768,8.895Z" style="fill:#3f43ad;fill-rule:nonzero;"/><path d="M114.304,48.766l2.206,0l0,-4.815c0,-1.176 0.57,-2.242 2.021,-2.242c1.544,0 1.618,1.617 1.618,2.591l0,4.466l2.205,0l0,-5.568c0,-1.801 -0.845,-3.474 -3.216,-3.474c-1.47,0 -2.297,0.754 -2.702,1.636l-0.036,0l0,-1.415l-2.096,0l0,8.821Z" style="fill:#3f43ad;fill-rule:nonzero;"/><path d="M124.412,44.356c0,2.775 2.132,4.631 4.797,4.631c2.664,0 4.796,-1.856 4.796,-4.631c0,-2.775 -2.132,-4.632 -4.796,-4.632c-2.665,0 -4.797,1.857 -4.797,4.632Zm2.205,0c0,-1.379 0.974,-2.647 2.592,-2.647c1.617,0 2.591,1.268 2.591,2.647c0,1.378 -0.974,2.646 -2.591,2.646c-1.618,0 -2.592,-1.268 -2.592,-2.646Z" style="fill:#3f43ad;fill-rule:nonzero;"/><path d="M137.938,48.766l2.279,0l1.856,-6.028l0.037,0l2.095,6.028l2.187,0l2.995,-8.821l-2.223,0l-1.838,6.175l-0.037,0l-1.911,-6.175l-2.389,0l-1.783,6.175l-0.037,0l-1.911,-6.175l-2.389,0l3.069,8.821Z" style="fill:#3f43ad;fill-rule:nonzero;"/></g></svg>