<?xml version="1.0" encoding="UTF-8" standalone="no"?><!DOCTYPE svg PUBLIC "-//W3C//DTD SVG 1.1//EN" "http://www.w3.org/Graphics/SVG/1.1/DTD/svg11.dtd"><svg width="100%" height="100%" viewBox="0 0 156 156" version="1.1" xmlns="http://www.w3.org/2000/svg" xmlns:xlink="http://www.w3.org/1999/xlink" xml:space="preserve" style="fill-rule:evenodd;clip-rule:evenodd;stroke-linejoin:round;stroke-miterlimit:1.41421;"><g><g><path d="M31.232,19.127c8.723,-9.739 20.247,-18.776 48.733,-18.975c11.129,-0.089 28.119,2.544 41.338,16.522c7.999,8.441 13.883,19.107 12.21,36.538c-0.364,3.783 -5.764,8.159 -1.969,15.459c0,0 8.152,14.346 7.865,16.733c0,0 0.145,4.363 -6.608,4.5c0,0 -1.685,0.219 -1.199,3.938l0.081,5.422c0,0 -0.215,1.613 -3.169,2.594c0,0 -0.563,0.562 0.277,1.625c0,0 1.554,1.733 -1.122,5.48c-0.991,1.365 -2.602,3.085 -1.617,6.618c0,0 1.265,6.808 -1.407,8.438c0,0 -3.038,3.606 -15.264,2.097c-4.275,-0.525 -12.165,-2.594 -16.867,3.312c0,0 -11.244,21.368 -12.1,26.422c0,0 -19.19,-34.164 -42.613,-39.437c0,0 5.708,-12.868 -5.902,-29.532c0,0 -14.551,-19.196 -14.982,-29.741c0.008,-0.001 -3.829,-17.769 14.315,-38.013Z"/><path d="M94.625,37.047c-0.749,0 -1.472,0.113 -2.152,0.323c-2.57,-2.88 -5.42,-5.5 -8.506,-7.826c0.129,-0.545 0.205,-1.11 0.205,-1.695c0,-0.808 -0.137,-1.584 -0.38,-2.311c3.456,-2.481 7.217,-4.562 11.216,-6.171c3.75,2.317 7.02,5.338 9.626,8.879c-1.935,3.426 -4.235,6.621 -6.85,9.529c-0.957,-0.462 -2.027,-0.728 -3.159,-0.728Zm7.294,7.294c0,-1.024 -0.214,-1.999 -0.595,-2.883c2.342,-2.57 4.462,-5.344 6.32,-8.3c2.332,4.629 3.652,9.854 3.652,15.39c0,6.412 -1.763,12.409 -4.827,17.542c-1.094,-6.17 -3.171,-11.998 -6.04,-17.344c0.933,-1.224 1.49,-2.747 1.49,-4.405Zm-25.042,-23.788c-1.927,0 -3.674,0.752 -4.978,1.972c-3.806,-1.637 -7.815,-2.893 -11.984,-3.695c5.033,-2.901 10.866,-4.569 17.093,-4.569c4.244,0 8.308,0.777 12.061,2.188c-2.979,1.47 -5.817,3.188 -8.487,5.124c-1.086,-0.644 -2.351,-1.02 -3.705,-1.02Zm-10.91,34.36c-0.454,-0.945 -1.098,-1.781 -1.895,-2.445c2.153,-6.628 5.564,-12.688 9.958,-17.902c0.874,0.371 1.836,0.577 2.847,0.577c1.582,0 3.043,-0.51 4.238,-1.365c2.644,2.009 5.091,4.262 7.316,6.722c-0.694,1.115 -1.102,2.43 -1.102,3.841c0,0.763 0.118,1.496 0.334,2.187c-6.399,4.275 -13.762,7.206 -21.696,8.385Zm-9.462,9.848c-0.101,1.381 -0.154,2.775 -0.154,4.18c0,2.476 0.158,4.914 0.456,7.309c-5.813,-4.247 -10.241,-10.277 -12.473,-17.288c2.644,0.64 5.358,1.097 8.126,1.363c0.652,1.996 2.137,3.611 4.045,4.436Zm11.172,-4.945c8.463,-1.402 16.311,-4.631 23.141,-9.258c1.108,0.68 2.409,1.08 3.805,1.08c0.513,0 1.012,-0.054 1.496,-0.155c3.27,6.199 5.36,13.114 5.96,20.444c-3.264,3.501 -7.248,6.321 -11.722,8.214c-5.554,-8.544 -13.322,-15.611 -22.68,-20.325Zm-13.687,-36.68c5.495,0.53 10.743,1.909 15.629,3.982c-0.026,0.24 -0.038,0.483 -0.038,0.73c0,1.152 0.274,2.237 0.749,3.206c-4.881,5.731 -8.672,12.409 -11.066,19.72c-2.966,0.053 -5.502,1.87 -6.593,4.451c-3.3,-0.335 -6.515,-0.966 -9.611,-1.877c-0.219,-1.568 -0.341,-3.169 -0.341,-4.8c0,-10.077 4.349,-19.139 11.271,-25.412Zm10.016,40.578c8.736,4.092 16.04,10.394 21.33,18.1c-2.666,0.665 -5.454,1.024 -8.328,1.024c-5.172,0 -10.073,-1.153 -14.47,-3.203c-0.707,-3.457 -1.081,-7.031 -1.081,-10.694c0,-1.323 0.06,-2.632 0.159,-3.93c0.882,-0.283 1.69,-0.725 2.39,-1.297Z" style="fill:#fff;fill-rule:nonzero;"/></g></g></svg>