<?xml version="1.0" encoding="UTF-8" standalone="no"?>
<!DOCTYPE svg PUBLIC "-//W3C//DTD SVG 1.1//EN" "http://www.w3.org/Graphics/SVG/1.1/DTD/svg11.dtd">
<svg width="100%" height="100%" viewBox="0 0 835 865" version="1.1" xmlns="http://www.w3.org/2000/svg" xmlns:xlink="http://www.w3.org/1999/xlink" xml:space="preserve" style="fill-rule:evenodd;clip-rule:evenodd;stroke-linejoin:round;stroke-miterlimit:1.41421;">
    <g transform="matrix(1,0,0,1,-696.928,-27.876)">
        <g transform="matrix(1.76835,0,0,0.505561,0,0)">
            <g transform="matrix(0.166132,0,0,0.581096,536.224,269.281)">
                <path d="M931.879,2074.81L926.692,2318.86L896.221,2461.21C896.221,2461.21 970.617,2420.24 1005.9,2483.84C1055.6,2573.42 850.196,2511.09 850.196,2511.09L876.788,2311.96L855.138,2148.05C855.138,2148.05 641.392,2207.69 352.704,2194.88L358.2,2332.98L315.421,2497.12C315.421,2497.12 399.875,2422.41 428.462,2498.37C466.696,2599.97 273.9,2518.35 273.9,2518.35L290.475,2332.51L272.466,2154.41C272.466,2154.41 515.271,2064.86 931.879,2074.81Z" style="fill-rule:nonzero;"/>
                <path d="M397.008,1530.36L657.425,1811.71L856,1489.03L922.529,1483.71L931.879,2074.82C931.879,2074.82 872.013,2100.98 740.167,2123.51C685.113,2133.91 600.288,2142.62 600.288,2142.62C513.654,2149.89 395.921,2155.41 272.466,2154.42L162.804,1551.15L397.008,1530.36Z" style="fill:rgb(63,67,173);fill-rule:nonzero;"/>
                <path d="M922.529,1483.71C922.529,1483.71 979.279,612.255 327.408,938.951C327.408,938.951 6.683,907.547 162.804,1551.15L922.529,1483.71Z" style="fill:rgb(253,218,187);fill-rule:nonzero;"/>
                <path d="M893.679,597.094C893.679,597.094 1200.18,1163.42 349.812,1077.96L333.133,1231.91C333.133,1231.91 260.65,1167.31 245.029,1242.19C229.412,1317.07 319.179,1286.3 319.179,1286.3C319.179,1286.3 251.379,1496.26 162.804,1551.15C162.804,1551.15 -122.534,842.282 243.504,885.903C243.504,885.903 208.391,723.352 393.65,674.911C657.996,605.794 786.779,914.561 893.679,597.094Z" style="fill:rgb(150,150,150);fill-rule:nonzero;"/>
                <path d="M856,1489.03L657.425,1811.71L397.008,1530.36L856,1489.03Z" style="fill:rgb(246,248,249);fill-rule:nonzero;"/>
                <path d="M856,1489.03L870.338,1618.45L798.417,1639.73L817.254,1737.55L657.425,1811.71L856,1489.03Z" style="fill-opacity:0.247059;fill-rule:nonzero;"/>
                <path d="M657.425,1811.71L490.933,1747.93L490.362,1675.66L410.887,1654.43L397.008,1530.36L657.425,1811.71Z" style="fill-opacity:0.247059;fill-rule:nonzero;"/>
                <path d="M701.958,1566.55L674.638,1532.5L612.104,1535.74L592.967,1581.28L620.596,1608.5L598.608,1748.43L657.425,1811.7L710.217,1726L676.004,1605.08L701.958,1566.55Z" style="fill:url(#_Linear1);fill-rule:nonzero;"/>
                <path d="M220.491,2109.23L265.779,2049.57L318.437,2079.66C321.941,2081.95 343.004,2097.48 335.708,2107.3C332.225,2112.02 326.616,2112.03 321.333,2110.52C324.446,2114.8 326.371,2119.91 323.125,2124.3C319.958,2128.58 315.058,2128.99 310.233,2127.89C312.808,2131.91 314.133,2136.44 311.162,2140.42C307.675,2145.12 302.091,2145.15 296.796,2143.63C299.916,2147.93 301.841,2153.02 298.587,2157.4C291.779,2166.59 277.037,2158.04 272.158,2154.82L220.491,2109.23Z" style="fill:rgb(253,218,187);fill-rule:nonzero;"/>
                <path d="M269.325,2046.74L287.571,2056.36L234.566,2126.87L219.646,2112.59L269.325,2046.74Z" style="fill:rgb(246,248,249);fill-rule:nonzero;"/>
                <path d="M167.316,1571.32C167.316,1571.32 -241.334,1802.78 218.654,2124.82L281.862,2046.79C281.862,2046.79 -75.742,1859.31 184.441,1665.82L167.316,1571.32Z" style="fill:rgb(63,67,173);fill-rule:nonzero;"/>
                <path d="M161.291,2063.99C165.725,2066.47 171.312,2064.88 173.779,2060.47C176.271,2056.01 174.683,2050.42 170.258,2047.95C165.833,2045.46 160.233,2047.05 157.754,2051.47C155.283,2055.91 156.85,2061.51 161.291,2063.99Z" style="fill:rgb(72,72,73);fill-rule:nonzero;"/>
                <path d="M186.258,2084.29C190.691,2086.77 196.291,2085.19 198.771,2080.77C201.237,2076.32 199.654,2070.73 195.233,2068.25C190.816,2065.77 185.208,2067.36 182.721,2071.77C180.246,2076.21 181.829,2081.82 186.258,2084.29Z" style="fill:rgb(72,72,73);fill-rule:nonzero;"/>
                <path d="M210.433,2104.13C214.871,2106.61 220.458,2105.02 222.946,2100.59C225.425,2096.17 223.841,2090.57 219.412,2088.1C214.979,2085.62 209.379,2087.2 206.9,2091.63C204.421,2096.05 206,2101.65 210.433,2104.13Z" style="fill:rgb(72,72,73);fill-rule:nonzero;"/>
                <path d="M642.754,1865.47C646.158,1876.62 657.958,1882.88 669.104,1879.48C680.254,1876.08 686.517,1864.28 683.117,1853.13C679.713,1841.99 667.908,1835.72 656.779,1839.12C645.625,1842.54 639.346,1854.33 642.754,1865.47Z" style="fill-rule:nonzero;"/>
                <path d="M647.7,1961.86C651.108,1973.01 662.913,1979.28 674.046,1975.88C685.192,1972.47 691.467,1960.67 688.046,1949.54C684.658,1938.38 672.854,1932.11 661.713,1935.52C650.567,1938.91 644.283,1950.71 647.7,1961.86Z" style="fill-rule:nonzero;"/>
                <g transform="matrix(1,0,0,1,-40.3119,0)">
                    <path d="M544.362,1248.96C544.362,1270.71 535.917,1288.33 525.496,1288.33C515.079,1288.33 506.633,1270.71 506.633,1248.96C506.633,1227.21 515.079,1209.59 525.496,1209.59C535.917,1209.59 544.362,1227.21 544.362,1248.96Z" style="fill-rule:nonzero;"/>
                </g>
                <g transform="matrix(1,0,0,1,-40.3119,0)">
                    <path d="M825.813,1221.53C825.813,1243.28 817.367,1260.9 806.946,1260.9C796.529,1260.9 788.084,1243.28 788.084,1221.53C788.084,1199.79 796.529,1182.16 806.946,1182.16C817.367,1182.16 825.813,1199.79 825.813,1221.53Z" style="fill-rule:nonzero;"/>
                </g>
                <path d="M996.517,2027.72L937.409,1981.72L894.263,2024.34C891.467,2027.46 875.109,2047.88 884.679,2055.49C889.267,2059.16 894.684,2057.73 899.404,2054.9C897.496,2059.85 896.946,2065.28 901.217,2068.69C905.375,2072 910.213,2071.14 914.596,2068.84C913.142,2073.38 913.029,2078.1 916.921,2081.18C921.5,2084.84 926.904,2083.42 931.634,2080.59C929.721,2085.55 929.171,2090.96 933.442,2094.36C942.384,2101.49 954.434,2089.44 958.313,2085.06L996.517,2027.72Z" style="fill:rgb(253,218,187);fill-rule:nonzero;"/>
                <path d="M933.254,1979.89L918.096,1993.87L987.455,2048.38L998.2,2030.74L933.254,1979.89Z" style="fill:rgb(246,248,249);fill-rule:nonzero;"/>
                <path d="M909.542,1494.22C909.542,1494.22 1310.22,1664.8 1002.31,2042.3L921.15,1983.15C921.15,1983.15 1166.89,1751.69 917.3,1589.94L909.542,1494.22Z" style="fill:rgb(63,67,173);fill-rule:nonzero;"/>
                <path d="M1042.09,1968.78C1038.44,1972.31 1032.63,1972.22 1029.12,1968.59C1025.57,1964.93 1025.66,1959.11 1029.3,1955.59C1032.94,1952.04 1038.76,1952.14 1042.29,1955.77C1045.82,1959.43 1045.74,1965.24 1042.09,1968.78Z" style="fill:rgb(72,72,73);fill-rule:nonzero;"/>
                <path d="M1023.19,1994.81C1019.54,1998.34 1013.72,1998.25 1010.19,1994.62C1006.66,1990.96 1006.75,1985.15 1010.39,1981.62C1014.02,1978.09 1019.85,1978.18 1023.39,1981.8C1026.92,1985.45 1026.83,1991.27 1023.19,1994.81Z" style="fill:rgb(72,72,73);fill-rule:nonzero;"/>
                <path d="M1004.93,2020.2C1001.28,2023.74 995.471,2023.64 991.925,2020C988.396,2016.37 988.484,2010.55 992.125,2007.02C995.775,2003.49 1001.59,2003.57 1005.12,2007.21C1008.66,2010.85 1008.58,2016.67 1004.93,2020.2Z" style="fill:rgb(72,72,73);fill-rule:nonzero;"/>
                <g transform="matrix(0.961907,-0.273377,-0.273377,-0.961907,362.144,2888.25)">
                    <path d="M611,1417.26L598.025,1415.31C598.129,1414.61 609.454,1344.61 682.533,1336.49C756.179,1328.32 774.704,1392.01 774.883,1392.66L762.242,1396.17C761.621,1394 746.258,1342.63 683.979,1349.53C620.829,1356.55 611.092,1416.65 611,1417.26Z" style="fill-rule:nonzero;"/>
                </g>
                <path d="M1066.14,2574.13L201.998,2574.13C166.598,2574.13 137.902,2545.43 137.902,2510.03C137.902,2474.63 166.598,2445.93 201.998,2445.93L280.356,2445.93L273.898,2518.35C273.898,2518.35 347.144,2549.36 394.39,2549.36C423.794,2549.36 443.127,2537.34 428.46,2498.37C418.827,2472.76 402.848,2464.28 385.89,2464.28C352.539,2464.28 315.419,2497.12 315.419,2497.12L328.756,2445.93L858.894,2445.93L850.194,2511.08C850.194,2511.08 919.744,2532.19 968.111,2532.19C1002.86,2532.19 1026.68,2521.29 1005.9,2483.83C990.482,2456.05 967.594,2448.23 946.711,2448.23C919.807,2448.23 896.219,2461.21 896.219,2461.21L899.49,2445.93L1066.14,2445.93C1101.54,2445.93 1130.23,2474.63 1130.23,2510.03C1130.23,2545.43 1101.54,2574.13 1066.14,2574.13Z" style="fill:rgb(200,200,200);fill-rule:nonzero;"/>
                <path d="M394.392,2549.36C347.146,2549.36 273.9,2518.35 273.9,2518.35L280.358,2445.93L328.758,2445.93L315.421,2497.12C315.421,2497.12 352.541,2464.28 385.892,2464.28C402.85,2464.28 418.829,2472.76 428.462,2498.37C443.129,2537.34 423.796,2549.36 394.392,2549.36ZM968.113,2532.19C919.746,2532.19 850.196,2511.09 850.196,2511.09L858.896,2445.93L899.492,2445.93L896.221,2461.21C896.221,2461.21 919.809,2448.23 946.713,2448.23C967.596,2448.23 990.484,2456.05 1005.9,2483.84C1026.68,2521.29 1002.86,2532.19 968.113,2532.19Z" style="fill:rgb(24,24,24);fill-rule:nonzero;"/>
            </g>
        </g>
        <g transform="matrix(1.76835,0,0,0.505561,0,0)">
            <g transform="matrix(0.456085,0,0,1.59529,394.111,-897.395)">
                <g transform="matrix(1.06672,0,0,1.06672,-260.15,84.274)">
                    <path d="M283.901,589.581C282.486,589.783 281.122,589.935 279.808,590.036C278.494,590.137 277.13,590.188 275.715,590.188C271.067,590.188 266.519,589.48 262.072,588.065C257.626,586.651 253.483,584.023 249.642,580.183C247.419,577.555 245.903,575.534 245.095,574.119C244.286,572.705 243.882,570.886 243.882,568.662C243.882,559.972 247.318,552.493 254.19,546.228C261.062,539.962 269.349,534.606 279.05,530.16C288.751,525.713 298.857,522.126 309.367,519.397C319.877,516.669 328.669,514.597 335.743,513.182C349.285,510.353 364.039,508.18 380.006,506.664C395.973,505.148 412.243,504.39 428.816,504.39C444.783,504.39 460.346,505.3 475.505,507.119C478.536,502.874 480.861,499.489 482.478,496.963C484.095,494.436 485.358,492.415 486.267,490.899C487.177,489.383 487.733,488.272 487.935,487.564C488.137,486.857 488.238,486.301 488.238,485.897C488.238,485.29 488.086,484.735 487.783,484.229C487.48,483.724 487.328,483.067 487.328,482.259C487.328,481.248 487.834,480.743 488.844,480.743C490.865,480.743 492.482,481.349 493.695,482.562C497.131,484.381 500.264,486.958 503.093,490.293C505.923,493.628 507.338,496.811 507.338,499.843C507.338,501.662 506.883,503.582 505.973,505.603C505.064,507.624 503.902,509.645 502.487,511.666C504.104,512.071 506.681,512.677 510.218,513.485C513.755,514.294 517.292,515.355 520.829,516.669C524.366,517.982 527.498,519.549 530.227,521.368C532.956,523.187 534.421,525.208 534.623,527.431C534.623,529.048 533.562,531.069 531.44,533.495C529.318,535.92 527.347,537.133 525.528,537.133C524.113,537.133 523.406,536.829 523.406,536.223C523.406,535.617 523.911,535.111 524.922,534.707C526.336,534.101 527.044,533.191 527.044,531.979C527.044,530.564 526.538,529.553 525.528,528.947C523.103,527.33 519.161,525.865 513.704,524.551C508.247,523.237 501.881,522.075 494.604,521.065C477.021,538.648 459.74,556.788 442.762,575.484C425.785,594.179 410.323,614.542 396.377,636.573C398.6,634.349 403.401,629.852 410.778,623.082C418.155,616.311 426.694,608.782 436.396,600.495C441.044,596.655 445.642,592.815 450.19,588.975C454.737,585.135 459.235,581.497 463.681,578.061C464.489,577.656 465.146,577.202 465.652,576.696C466.157,576.191 467.117,575.837 468.532,575.635C469.947,575.635 471.513,576.04 473.231,576.848C474.949,577.656 476.566,578.718 478.082,580.031C479.598,581.345 480.861,582.76 481.871,584.276C482.882,585.792 483.387,587.257 483.387,588.672C483.387,589.48 483.236,590.339 482.932,591.249C482.629,592.158 481.972,592.815 480.962,593.219C473.079,600.495 466.713,607.519 461.862,614.29C457.011,621.06 453.323,627.376 450.796,633.238C448.27,639.099 446.552,644.354 445.642,649.003C444.733,653.651 444.278,657.491 444.278,660.523C444.278,663.353 444.531,665.525 445.036,667.041C445.541,668.557 446.148,669.719 446.855,670.528C447.562,671.336 448.169,671.842 448.674,672.044C449.179,672.246 449.432,672.448 449.432,672.65C449.028,673.458 448.32,673.913 447.31,674.014C446.299,674.115 445.491,674.166 444.884,674.166C442.863,673.762 440.943,672.852 439.124,671.437C437.305,670.023 435.688,668.507 434.273,666.89C431.848,663.858 430.181,660.574 429.271,657.037C428.362,653.5 427.907,650.62 427.907,648.396C427.907,642.333 429.17,636.269 431.697,630.206C434.223,624.143 437.002,618.585 440.034,613.532C443.672,607.872 447.815,602.314 452.464,596.857C448.219,600.091 443.268,604.083 437.608,608.833C431.949,613.582 426.138,618.686 420.176,624.143C414.214,629.6 408.302,635.158 402.441,640.817C396.579,646.476 391.425,651.731 386.979,656.582C383.341,660.624 380.461,663.808 378.338,666.132C376.216,668.456 374.549,670.326 373.336,671.74C371.921,673.357 371.012,674.469 370.608,675.075C368.991,677.501 367.677,678.713 366.666,678.713C365.454,678.511 364.443,677.854 363.635,676.743C362.826,675.631 362.119,674.469 361.512,673.256C360.906,672.044 360.451,670.831 360.148,669.618C359.845,668.406 359.693,667.496 359.693,666.89C359.693,664.667 359.997,662.494 360.603,660.372C361.209,658.249 361.917,656.38 362.725,654.763C363.534,652.742 364.645,650.822 366.06,649.003C373.538,636.876 380.966,625.911 388.343,616.109C395.72,606.306 403.552,596.352 411.839,586.246C415.477,582.002 419.469,577.151 423.814,571.694C428.16,566.237 432.758,560.578 437.608,554.717C442.459,548.855 447.36,542.792 452.312,536.526C457.264,530.261 462.064,524.197 466.713,518.336C464.489,518.336 462.216,518.286 459.891,518.184C457.567,518.083 455.293,518.033 453.07,518.033C450.038,518.033 446.956,518.083 443.823,518.184C440.691,518.286 437.709,518.437 434.88,518.639C438.518,521.469 440.792,523.49 441.701,524.703C442.611,525.915 443.065,527.027 443.065,528.038C443.065,529.048 442.661,529.806 441.853,530.311C441.044,530.817 440.438,531.271 440.034,531.676C432.555,536.122 424.825,541.579 416.841,548.047C408.858,554.514 401.026,561.487 393.345,568.966C385.665,576.444 378.237,584.225 371.062,592.31C363.887,600.394 357.369,608.277 351.508,615.957C345.647,623.637 340.594,630.863 336.349,637.634C332.105,644.405 329.073,650.215 327.254,655.066C333.924,650.417 340.038,645.971 345.596,641.727C351.154,637.482 357.773,633.036 365.454,628.387C367.273,627.174 368.789,626.568 370.001,626.568C371.012,626.568 371.517,626.972 371.517,627.781C367.273,630.812 362.776,634.552 358.026,638.998C353.276,643.445 348.83,647.891 344.686,652.338C340.543,656.784 336.956,660.877 333.924,664.616C330.892,668.355 329.073,670.831 328.467,672.044C327.456,674.065 326.244,675.328 324.829,675.833C323.414,676.339 322.1,676.591 320.888,676.591C319.675,676.591 318.311,676.288 316.795,675.682C315.279,675.075 313.864,674.267 312.55,673.256C311.237,672.246 310.074,671.084 309.064,669.77C308.053,668.456 307.548,667.092 307.548,665.677C307.548,659.816 308.963,653.904 311.792,647.942C314.622,641.979 317.553,636.371 320.584,631.116C325.839,622.02 332.61,612.167 340.897,601.556C349.184,590.945 357.874,580.537 366.97,570.33C376.065,560.123 385.16,550.573 394.255,541.68C403.35,532.787 411.232,525.511 417.902,519.852C410.828,520.458 404.108,521.115 397.741,521.823C391.375,522.53 385.261,523.288 379.4,524.096C370.911,525.309 361.816,526.875 352.114,528.795C342.413,530.716 332.762,533.191 323.161,536.223C313.561,539.255 304.264,542.893 295.27,547.137C286.276,551.382 278.242,556.435 271.168,562.296C267.732,565.125 265.306,567.803 263.891,570.33C262.477,572.856 261.769,575.231 261.769,577.454C261.971,579.273 262.729,580.739 264.043,581.85C265.357,582.962 266.923,583.821 268.742,584.427C270.561,585.034 272.633,585.438 274.957,585.64C277.282,585.842 279.656,586.044 282.082,586.246C282.486,586.246 283.598,586.297 285.417,586.398C287.236,586.499 288.145,586.954 288.145,587.762C288.145,588.166 287.69,588.52 286.781,588.823C285.871,589.126 284.911,589.379 283.901,589.581Z" style="fill-rule:nonzero;"/>
                </g>
                <g transform="matrix(1.06672,0,0,1.06672,-260.15,84.274)">
                    <path d="M558.27,571.997C560.494,573.614 562.313,575.282 563.727,577C565.142,578.718 566.355,580.284 567.365,581.699C568.376,583.316 569.286,584.933 570.094,586.549C571.307,587.964 571.913,589.985 571.913,592.613C571.913,596.453 571.206,599.687 569.791,602.314C568.376,604.942 567.062,606.256 565.85,606.256C565.445,606.053 565.243,605.649 565.243,605.043C565.243,604.437 565.395,603.931 565.698,603.527C566.001,603.123 566.355,602.516 566.759,601.708C567.163,600.697 567.517,599.636 567.82,598.525C568.123,597.413 568.275,596.554 568.275,595.948C568.275,594.331 567.82,593.068 566.911,592.158C566.001,591.249 564.94,590.541 563.727,590.036C562.515,589.531 561.201,589.177 559.786,588.975C558.371,588.773 557.159,588.672 556.148,588.672C551.297,588.672 545.941,589.834 540.08,592.158C534.219,594.482 528.408,597.565 522.648,601.405C516.888,605.245 511.38,609.54 506.125,614.29C500.87,619.039 496.322,623.839 492.482,628.69C490.865,630.509 489.248,632.733 487.632,635.36C486.015,637.987 484.448,640.665 482.932,643.394C481.417,646.123 480.153,648.851 479.143,651.58C478.132,654.308 477.526,656.784 477.324,659.007C481.164,654.561 486.065,649.862 492.028,644.91C497.99,639.958 503.902,635.36 509.763,631.116C516.433,626.063 523.406,621.212 530.682,616.563C531.894,615.553 533.259,614.593 534.775,613.683C536.29,612.774 537.857,612.319 539.474,612.319C540.686,612.319 542,612.774 543.415,613.683C544.83,614.593 546.194,615.654 547.508,616.867C548.822,618.079 549.883,619.292 550.691,620.505C551.5,621.717 551.904,622.526 551.904,622.93C551.5,623.334 551.297,623.536 551.297,623.536L550.691,623.536C549.074,624.547 547.609,626.113 546.295,628.235C544.981,630.358 543.87,632.48 542.96,634.602C542.051,636.724 541.293,638.594 540.686,640.211C540.08,641.828 539.777,642.636 539.777,642.636C538.766,645.466 538.008,648.295 537.503,651.125C536.998,653.954 536.745,656.178 536.745,657.795C536.947,661.635 537.503,664.414 538.413,666.132C539.322,667.85 540.232,669.062 541.141,669.77C542.051,670.477 542.859,670.932 543.567,671.134C544.274,671.336 544.628,671.842 544.628,672.65C544.223,673.256 543.213,673.56 541.596,673.56C538.362,673.56 535.634,672.701 533.41,670.983C531.187,669.265 529.368,667.193 527.953,664.768C526.538,662.342 525.528,659.765 524.922,657.037C524.315,654.308 524.012,651.933 524.012,649.912C524.012,646.88 524.265,643.899 524.77,640.969C525.275,638.038 525.932,635.36 526.741,632.935C527.549,630.307 528.459,627.68 529.469,625.052C526.033,627.073 522.496,629.549 518.858,632.48C515.22,635.411 510.167,639.806 503.7,645.668C498.243,650.519 493.796,654.915 490.36,658.856C486.924,662.797 484.095,666.132 481.871,668.86C479.648,671.589 477.88,673.711 476.566,675.227C475.252,676.743 474.09,677.501 473.079,677.501C471.867,677.501 470.553,676.995 469.138,675.985C467.723,674.974 466.46,673.661 465.348,672.044C464.237,670.427 463.226,668.759 462.317,667.041C461.407,665.323 460.851,663.656 460.649,662.039L460.649,659.31C460.649,653.651 462.064,647.487 464.894,640.817C467.723,634.147 471.563,627.478 476.414,620.808C481.265,614.138 486.823,607.721 493.089,601.556C499.354,595.392 505.822,589.985 512.492,585.337C519.161,580.688 525.882,576.949 532.652,574.119C539.423,571.29 545.739,569.875 551.601,569.875C554.834,569.875 557.058,570.582 558.27,571.997Z" style="fill-rule:nonzero;"/>
                </g>
                <g transform="matrix(1.06672,0,0,1.06672,-260.15,84.274)">
                    <path d="M606.171,578.061C607.586,577.454 609.102,577.151 610.719,577.151C611.932,577.151 613.296,577.505 614.812,578.212C616.328,578.92 617.793,579.829 619.208,580.941C620.622,582.052 621.835,583.265 622.846,584.579C623.856,585.893 624.362,587.257 624.362,588.672C624.159,590.693 622.441,593.826 619.208,598.07C615.974,602.314 612.285,606.862 608.142,611.713C603.999,616.563 599.855,621.212 595.712,625.659C591.569,630.105 588.587,633.642 586.768,636.269C588.79,634.45 592.731,630.964 598.592,625.81C604.453,620.656 610.82,615.25 617.692,609.59C624.564,603.931 631.233,598.727 637.701,593.977C644.169,589.227 648.918,586.347 651.95,585.337C653.971,584.933 655.386,584.73 656.195,584.73C657.407,584.73 658.721,585.084 660.136,585.792C661.551,586.499 662.864,587.408 664.077,588.52C665.29,589.632 666.3,590.895 667.109,592.31C667.917,593.725 668.321,595.038 668.321,596.251C668.321,596.857 668.069,597.615 667.563,598.525C667.058,599.434 665.391,601.405 662.561,604.437C659.732,607.872 656.498,611.864 652.86,616.412C649.222,620.959 645.786,625.659 642.552,630.509C639.318,635.36 636.589,640.11 634.366,644.758C632.143,649.407 631.031,653.651 631.031,657.491C631.031,658.704 631.082,660.018 631.183,661.433C631.284,662.847 631.537,664.161 631.941,665.374C632.345,666.587 633.052,667.597 634.063,668.406C635.074,669.214 636.387,669.618 638.004,669.618C638.408,669.618 638.611,669.82 638.611,670.225C638.611,671.437 637.954,672.296 636.64,672.802C635.326,673.307 633.962,673.56 632.547,673.56C627.899,673.56 623.907,671.488 620.572,667.345C617.237,663.201 615.57,658.401 615.57,652.944C615.57,648.497 616.176,644.202 617.389,640.059C618.601,635.916 620.42,631.621 622.846,627.174C625.271,622.728 628.202,618.079 631.638,613.229C635.074,608.378 638.914,603.022 643.158,597.16C638.307,600.394 632.244,605.043 624.968,611.106C620.724,614.542 616.277,618.281 611.628,622.324C606.98,626.366 602.483,630.358 598.137,634.299C593.792,638.24 589.75,642.03 586.01,645.668C582.271,649.306 579.189,652.54 576.764,655.369C572.519,660.22 569.538,663.909 567.82,666.435C566.102,668.961 565.243,670.831 565.243,672.044C565.243,672.65 565.445,673.357 565.85,674.166C565.647,674.57 564.94,674.772 563.727,674.772C561.504,674.772 558.978,673.812 556.148,671.892C553.319,669.972 551.904,666.991 551.904,662.949C551.904,661.736 552.106,660.523 552.51,659.31C552.914,658.098 553.319,656.986 553.723,655.976C554.329,654.965 554.935,653.954 555.542,652.944C557.765,649.71 560.19,646.123 562.818,642.181C565.445,638.24 568.578,633.642 572.216,628.387C575.854,623.132 580.2,617.018 585.253,610.045C590.305,603.072 596.47,594.735 603.746,585.034C599.097,587.661 595.106,589.935 591.771,591.855C588.436,593.775 586.465,594.735 585.859,594.735C584.444,594.735 583.737,594.23 583.737,593.219C583.737,592.411 584.798,591.198 586.92,589.581C589.042,587.964 591.417,586.347 594.044,584.73C596.672,583.114 599.198,581.699 601.624,580.486C604.049,579.273 605.565,578.465 606.171,578.061Z" style="fill-rule:nonzero;"/>
                </g>
                <g transform="matrix(1.06672,0,0,1.06672,-260.15,84.274)">
                    <path d="M665.29,658.098C663.673,660.523 662.561,662.797 661.955,664.919C661.348,667.041 660.944,669.113 660.742,671.134C660.742,671.538 661.045,671.74 661.652,671.74C662.258,671.74 662.763,672.246 663.167,673.256C662.763,673.863 662.056,674.166 661.045,674.166C655.588,673.357 652.051,671.589 650.434,668.86C648.817,666.132 647.807,663.454 647.403,660.826C647.403,657.39 648.514,653.348 650.737,648.7C652.961,644.051 655.79,639.402 659.226,634.754C667.715,622.627 675.85,611.612 683.631,601.708C691.413,591.804 699.144,582.154 706.824,572.755C714.504,563.357 722.387,553.706 730.471,543.802C738.556,533.899 747.247,522.783 756.544,510.454C757.555,508.837 758.262,507.472 758.666,506.361C759.07,505.249 759.374,504.188 759.576,503.178C759.576,502.571 759.475,501.965 759.273,501.358C759.07,500.752 758.969,500.045 758.969,499.236C758.969,498.226 759.475,497.72 760.485,497.72C761.294,497.72 762.153,497.973 763.062,498.478C763.972,498.984 764.73,499.438 765.336,499.843C768.772,501.662 771.854,504.239 774.583,507.573C777.311,510.908 778.676,514.193 778.676,517.427C778.473,520.054 777.665,522.631 776.25,525.157C774.835,527.684 773.218,530.059 771.399,532.282C769.176,534.707 766.751,537.133 764.123,539.558C753.816,549.866 744.518,559.113 736.232,567.298C727.945,575.484 720.467,583.215 713.797,590.491C708.946,595.746 704.449,600.9 700.306,605.952C696.163,611.005 692.171,616.159 688.331,621.414C691.564,618.18 696.112,613.885 701.973,608.529C707.835,603.173 713.999,597.918 720.467,592.764C726.934,587.611 733.402,583.164 739.87,579.425C746.337,575.686 751.895,573.614 756.544,573.21C758.363,573.21 760.182,573.715 762.001,574.726C763.82,575.736 765.538,577 767.155,578.515C768.772,580.031 770.086,581.8 771.096,583.821C772.107,585.842 772.612,587.762 772.612,589.581C772.612,595.24 770.54,600.748 766.397,606.104C762.254,611.46 757.201,616.311 751.239,620.656C745.276,625.002 738.96,628.64 732.29,631.57C725.621,634.501 719.759,636.371 714.706,637.179C714.909,639.2 715.616,641.929 716.829,645.365C718.041,648.801 719.557,652.186 721.376,655.521C723.195,658.856 725.166,661.887 727.288,664.616C729.41,667.345 731.381,669.113 733.2,669.921C734.008,670.326 734.817,670.578 735.625,670.679C736.434,670.78 736.838,671.134 736.838,671.74C736.838,672.953 735.928,673.762 734.109,674.166C732.29,674.57 731.179,674.772 730.775,674.772C726.934,674.57 722.943,673.206 718.799,670.679C714.656,668.153 710.866,664.97 707.43,661.13C703.994,657.289 701.114,653.045 698.79,648.396C696.466,643.748 695.202,639.301 695,635.057C700.66,632.834 706.774,630.257 713.342,627.326C719.911,624.395 726.126,620.1 731.987,614.441C733.2,613.229 734.968,611.511 737.293,609.287C739.617,607.064 741.941,604.538 744.266,601.708C746.59,598.878 748.662,595.847 750.481,592.613C752.3,589.379 753.31,586.246 753.512,583.215C751.289,583.215 747.752,584.68 742.901,587.611C738.051,590.541 732.543,594.381 726.379,599.131C720.214,603.881 713.696,609.186 706.824,615.048C699.952,620.909 693.485,626.669 687.421,632.328C682.57,636.977 678.225,641.524 674.385,645.971C670.545,650.417 667.513,654.46 665.29,658.098Z" style="fill-rule:nonzero;"/>
                </g>
                <g transform="matrix(1.06672,0,0,1.06672,-260.15,84.274)">
                    <path d="M854.771,572.907C856.995,572.907 859.572,573.867 862.502,575.787C865.433,577.707 867.707,579.779 869.324,582.002C870.738,583.619 871.446,585.337 871.446,587.156C871.446,589.581 869.324,592.108 865.079,594.735C859.824,597.969 854.468,602.264 849.011,607.62C843.554,612.976 838.4,618.736 833.549,624.901C828.699,631.065 824.454,637.331 820.816,643.697C817.178,650.064 814.551,655.976 812.934,661.433C816.774,660.624 821.827,657.896 828.092,653.247C834.358,648.598 841.078,643.192 848.253,637.027C855.428,630.863 862.603,624.547 869.778,618.079C876.953,611.612 883.269,606.053 888.727,601.405C889.939,600.394 891.051,599.889 892.061,599.889C894.689,599.889 897.67,600.9 901.005,602.921C904.34,604.942 906.007,607.569 906.007,610.803C906.007,611.814 905.906,612.572 905.704,613.077C905.502,613.582 905.3,614.037 905.098,614.441C904.896,614.845 904.694,615.149 904.491,615.351C904.491,615.755 903.986,617.119 902.976,619.444C901.965,621.768 900.651,624.597 899.034,627.932C897.417,631.267 895.699,634.905 893.88,638.846C892.061,642.788 890.343,646.426 888.727,649.761C887.11,653.095 885.745,655.925 884.634,658.249C883.522,660.574 882.966,661.837 882.966,662.039C883.977,662.039 884.937,662.14 885.846,662.342C886.756,662.544 887.312,663.05 887.514,663.858C887.312,665.475 886.453,666.435 884.937,666.738C883.421,667.041 881.855,667.496 880.238,668.102C877.812,672.145 874.73,676.995 870.991,682.655C867.252,688.314 863.159,694.226 858.713,700.39C854.266,706.555 849.466,712.618 844.312,718.58C839.158,724.543 833.853,729.899 828.396,734.648C822.938,739.398 817.33,743.289 811.57,746.321C805.809,749.352 800.201,750.868 794.744,750.868C790.095,750.868 786.659,749.706 784.436,747.382C782.213,745.057 781.101,741.975 781.101,738.135C781.101,733.891 782.566,729.191 785.497,724.037C788.428,718.884 792.268,713.73 797.017,708.576C801.767,703.422 807.123,698.369 813.085,693.417C819.048,688.465 825.061,683.968 831.124,679.926C837.187,675.884 842.998,672.448 848.556,669.618C854.115,666.789 858.915,664.869 862.957,663.858L884.482,613.835C873.77,624.345 864.523,633.389 856.742,640.969C848.961,648.548 842.24,654.813 836.581,659.765C830.922,664.717 826.273,668.355 822.635,670.679C818.997,673.004 816.067,674.166 813.843,674.166C810.205,674.166 806.971,672.751 804.142,669.921C801.11,666.89 799.594,662.949 799.594,658.098C799.594,652.641 801.009,646.375 803.839,639.301C806.668,632.227 810.508,625.254 815.359,618.382C820.412,611.308 826.071,604.386 832.337,597.615C838.602,590.844 844.261,585.135 849.314,580.486C850.527,579.273 851.335,578.212 851.74,577.303C852.144,576.393 852.447,575.635 852.649,575.029C852.851,574.423 853.053,573.917 853.256,573.513C853.458,573.109 853.963,572.907 854.771,572.907ZM823.545,719.035C830.821,711.961 837.39,704.18 843.251,695.691C849.112,687.202 854.367,679.118 859.016,671.437C856.388,672.448 852.851,674.267 848.405,676.894C843.958,679.522 839.259,682.705 834.307,686.444C829.356,690.183 824.353,694.226 819.3,698.571C814.248,702.917 809.649,707.414 805.506,712.062C801.363,716.711 797.927,721.309 795.198,725.856C792.47,730.404 791.004,734.598 790.802,738.438C790.802,739.651 791.409,740.257 792.621,740.257C794.845,740.257 797.422,739.449 800.352,737.832C803.283,736.215 806.214,734.244 809.144,731.92C812.075,729.596 814.803,727.271 817.33,724.947C819.856,722.623 821.928,720.652 823.545,719.035Z" style="fill-rule:nonzero;"/>
                </g>
                <g transform="matrix(1.06672,0,0,1.06672,-260.15,84.274)">
                    <path d="M973.008,591.703C969.572,592.916 965.53,594.836 960.881,597.464C956.233,600.091 951.584,603.274 946.935,607.014C942.287,610.753 937.79,614.946 933.444,619.595C929.099,624.244 925.41,629.094 922.379,634.147C920.762,636.775 919.094,640.211 917.376,644.455C915.658,648.7 914.799,652.641 914.799,656.279C914.799,658.704 915.355,660.776 916.467,662.494C917.578,664.212 919.65,665.273 922.682,665.677C927.33,665.475 932.181,663.808 937.234,660.675C942.287,657.542 947.188,653.702 951.938,649.154C956.687,644.607 961.033,639.806 964.974,634.754C968.915,629.701 972.099,625.254 974.524,621.414C978.566,615.149 980.587,608.782 980.587,602.314C980.385,599.889 979.627,598.676 978.314,598.676C977,598.676 976.242,598.171 976.04,597.16C976.242,595.544 977.455,594.634 979.678,594.432C981.901,594.23 983.518,594.129 984.529,594.129C987.964,594.129 990.845,595.594 993.169,598.525C995.493,601.455 996.655,604.538 996.655,607.771C996.655,612.016 995.695,616.462 993.775,621.111C991.855,625.76 989.379,630.307 986.348,634.754C983.316,639.2 979.779,643.546 975.737,647.79C971.694,652.034 967.551,655.875 963.307,659.31C957.445,663.959 951.432,667.9 945.268,671.134C939.103,674.368 933.091,675.985 927.229,675.985C921.368,675.985 916.012,674.166 911.161,670.528C908.129,668.102 905.704,665.222 903.885,661.887C902.066,658.553 901.157,654.662 901.157,650.215C901.157,641.727 903.531,633.086 908.281,624.294C913.031,615.502 919.044,607.468 926.32,600.192C933.596,592.916 941.63,586.802 950.422,581.85C959.214,576.899 967.551,573.917 975.433,572.907C978.263,572.907 980.638,573.362 982.558,574.271C984.478,575.181 986.246,576.444 987.863,578.061C989.682,579.88 991.501,581.749 993.32,583.669C995.14,585.589 996.554,587.56 997.565,589.581C997.969,589.783 998.171,590.086 998.171,590.491C998.171,590.895 998.171,591.198 998.171,591.4C998.171,591.602 998.07,592.108 997.868,592.916C997.666,593.725 997.363,594.129 996.959,594.129C996.352,594.129 995.948,594.028 995.746,593.826C994.129,592.411 992.31,591.4 990.289,590.794C988.268,590.188 986.348,589.884 984.529,589.884C981.699,589.884 979.274,590.137 977.252,590.642C975.231,591.148 973.816,591.501 973.008,591.703Z" style="fill-rule:nonzero;"/>
                </g>
                <g transform="matrix(1.06672,0,0,1.06672,-260.15,84.274)">
                    <path d="M1056.99,585.64C1052.14,589.884 1046.78,594.937 1040.92,600.799C1035.06,606.66 1029.55,612.875 1024.39,619.444C1019.24,626.012 1014.75,632.834 1010.9,639.908C1007.06,646.982 1004.64,653.954 1003.63,660.826C1006.86,659.614 1011.11,656.936 1016.36,652.792C1021.62,648.649 1027.33,643.899 1033.49,638.543C1039.65,633.187 1045.97,627.579 1052.44,621.717C1058.91,615.856 1064.92,610.449 1070.48,605.498C1076.04,600.546 1080.84,596.403 1084.88,593.068C1088.92,589.733 1091.75,588.065 1093.37,588.065C1094.38,588.065 1095.54,588.47 1096.85,589.278C1098.17,590.086 1099.43,591.097 1100.64,592.31C1101.86,593.522 1102.92,594.786 1103.83,596.099C1104.74,597.413 1105.19,598.676 1105.19,599.889C1104.99,601.506 1104.18,603.022 1102.77,604.437C1101.96,605.245 1101.25,605.851 1100.64,606.256C1087.91,621.01 1079.02,633.389 1073.96,643.394C1068.91,653.399 1066.28,660.321 1066.08,664.161C1066.08,666.991 1066.28,668.86 1066.69,669.77C1067.09,670.679 1067.39,671.639 1067.6,672.65C1067.6,673.661 1067.39,674.166 1066.99,674.166C1057.9,672.751 1053.35,666.486 1053.35,655.369C1053.35,651.731 1054.16,647.689 1055.77,643.242C1057.39,638.796 1059.41,634.4 1061.84,630.054C1064.26,625.709 1066.94,621.566 1069.87,617.624C1072.8,613.683 1075.48,610.298 1077.9,607.468C1065.37,619.797 1055.17,630.156 1047.29,638.543C1039.4,646.931 1032.93,653.651 1027.88,658.704C1022.83,663.757 1018.74,667.345 1015.6,669.467C1012.47,671.589 1009.59,672.65 1006.96,672.65C1005.14,672.65 1003.22,672.145 1001.2,671.134C999.182,670.124 997.363,668.759 995.746,667.041C994.129,665.323 992.765,663.403 991.653,661.281C990.541,659.159 989.986,656.885 989.986,654.46C989.986,647.588 991.855,640.11 995.594,632.025C999.333,623.941 1003.73,616.26 1008.78,608.984C1013.84,601.708 1018.94,595.139 1024.09,589.278C1029.25,583.417 1033.24,579.071 1036.07,576.242C1037.48,575.029 1038.49,573.968 1039.1,573.058C1039.71,572.149 1040.06,571.391 1040.16,570.785C1040.26,570.178 1040.41,569.673 1040.62,569.269C1040.82,568.865 1041.32,568.662 1042.13,568.662C1044.35,568.662 1047.03,569.724 1050.16,571.846C1053.3,573.968 1055.67,576.04 1057.29,578.061C1058.1,579.071 1058.7,579.88 1059.11,580.486C1059.51,581.092 1059.71,581.699 1059.71,582.305C1059.71,583.114 1058.81,584.225 1056.99,585.64Z" style="fill-rule:nonzero;"/>
                </g>
                <g transform="matrix(1.06672,0,0,1.06672,-260.15,84.274)">
                    <path d="M1120.05,662.342C1119.84,665.576 1118.99,668.052 1117.47,669.77C1115.95,671.488 1114.24,672.751 1112.32,673.56C1110.39,674.368 1108.63,674.823 1107.01,674.924C1105.39,675.025 1104.48,675.075 1104.28,675.075C1100.85,675.075 1097.86,673.964 1095.34,671.74C1092.81,669.517 1091.55,666.384 1091.55,662.342C1091.55,658.098 1093.27,654.965 1096.7,652.944C1100.14,650.923 1103.57,649.912 1107.01,649.912C1110.44,649.912 1113.48,650.872 1116.11,652.792C1118.73,654.712 1120.05,657.896 1120.05,662.342ZM1191.59,509.544C1192.4,507.927 1192.91,506.714 1193.11,505.906C1193.31,505.098 1193.41,504.289 1193.41,503.481C1193.41,502.47 1193.21,501.561 1192.81,500.752C1192.4,499.944 1192.2,499.236 1192.2,498.63C1192.2,497.619 1192.5,497.114 1193.11,497.114C1195.13,497.114 1197.35,497.771 1199.78,499.085C1202.2,500.398 1204.48,502.015 1206.6,503.935C1208.72,505.856 1210.49,507.877 1211.91,509.999C1213.32,512.121 1214.03,514.092 1214.03,515.911C1214.03,518.134 1213.47,520.307 1212.36,522.429C1211.25,524.551 1209.89,526.421 1208.27,528.038C1203.01,533.899 1198.16,539.255 1193.72,544.106C1189.27,548.956 1185.08,553.554 1181.13,557.9C1177.19,562.245 1173.45,566.439 1169.92,570.481C1166.38,574.524 1162.89,578.768 1159.46,583.215C1156.83,586.651 1153.85,590.592 1150.52,595.038C1147.18,599.485 1144.05,604.133 1141.12,608.984C1138.19,613.835 1135.71,618.635 1133.69,623.385C1131.67,628.134 1130.66,632.631 1130.66,636.876C1130.86,639.099 1131.41,640.413 1132.32,640.817C1133.23,641.221 1133.79,641.929 1133.99,642.939C1133.59,643.95 1132.98,644.455 1132.17,644.455C1128.13,644.051 1125,642.939 1122.77,641.12C1120.55,639.301 1118.93,637.331 1117.92,635.208C1116.91,633.086 1116.31,631.015 1116.11,628.993C1115.9,626.972 1115.8,625.557 1115.8,624.749C1115.8,622.728 1116.11,620.454 1116.71,617.928C1117.32,615.401 1118.53,612.268 1120.35,608.529C1122.17,604.79 1124.8,600.293 1128.23,595.038C1131.67,589.783 1136.21,583.518 1141.87,576.242C1152.38,562.7 1162.19,550.068 1171.28,538.345C1180.38,526.623 1187.15,517.022 1191.59,509.544Z" style="fill-rule:nonzero;"/>
                </g>
            </g>
        </g>
    </g>
    <defs>
        <linearGradient id="_Linear1" x1="0" y1="0" x2="1" y2="0" gradientUnits="userSpaceOnUse" gradientTransform="matrix(1.70961e-14,279.2,-279.2,1.70961e-14,682.825,1532.51)"><stop offset="0%" style="stop-color:rgb(237,28,36);stop-opacity:1"/><stop offset="41%" style="stop-color:rgb(249,161,26);stop-opacity:1"/><stop offset="66%" style="stop-color:rgb(255,242,0);stop-opacity:1"/><stop offset="87%" style="stop-color:rgb(216,230,12);stop-opacity:1"/><stop offset="94%" style="stop-color:rgb(115,200,44);stop-opacity:1"/><stop offset="99%" style="stop-color:rgb(0,166,80);stop-opacity:1"/><stop offset="100%" style="stop-color:rgb(0,166,80);stop-opacity:1"/></linearGradient>
    </defs>
</svg>
