<?xml version="1.0" encoding="UTF-8" standalone="no"?><!DOCTYPE svg PUBLIC "-//W3C//DTD SVG 1.1//EN" "http://www.w3.org/Graphics/SVG/1.1/DTD/svg11.dtd"><svg width="100%" height="100%" viewBox="0 0 493 493" version="1.1" xmlns="http://www.w3.org/2000/svg" xmlns:xlink="http://www.w3.org/1999/xlink" xml:space="preserve" style="fill-rule:evenodd;clip-rule:evenodd;stroke-linejoin:round;stroke-miterlimit:1.41421;"><g><path d="M246.676,0.988c0.502,0.003 1.003,0.011 1.505,0.029c0.996,0.034 1.99,0.099 2.982,0.194c2.862,0.275 5.7,0.806 8.468,1.585c3.282,0.924 6.464,2.198 9.478,3.791c3.174,1.678 6.16,3.711 8.887,6.046c1.914,1.639 3.701,3.426 5.338,5.341c0.572,0.669 1.126,1.353 1.66,2.051c0.25,0.327 0.496,0.657 0.738,0.99l0.373,0.515l151.684,244.174c0.073,0.121 0.147,0.242 0.22,0.362c0.347,0.579 0.685,1.163 1.009,1.756c0.683,1.248 1.31,2.527 1.88,3.831c1.574,3.602 2.703,7.395 3.354,11.271c0.904,5.376 0.894,10.906 -0.033,16.278c-0.365,2.118 -0.872,4.212 -1.518,6.262c-0.709,2.253 -1.584,4.453 -2.616,6.578c-1.485,3.057 -3.295,5.955 -5.387,8.633c-2.078,2.66 -4.434,5.102 -7.018,7.274c-2.149,1.806 -4.455,3.426 -6.884,4.833c-2.671,1.547 -5.49,2.837 -8.406,3.845c-3.268,1.129 -6.656,1.903 -10.089,2.307c-1.167,0.138 -2.34,0.232 -3.514,0.285c-0.67,0.029 -1.34,0.044 -2.011,0.047c-100.135,0.16 -200.27,0.16 -300.405,0c-0.673,-0.003 -1.346,-0.018 -2.018,-0.048c-1.28,-0.056 -2.558,-0.164 -3.831,-0.322c-3.341,-0.414 -6.638,-1.179 -9.82,-2.278c-2.836,-0.98 -5.579,-2.226 -8.184,-3.714c-2.531,-1.446 -4.931,-3.121 -7.162,-4.996c-2.222,-1.868 -4.277,-3.935 -6.132,-6.169c-1.987,-2.393 -3.744,-4.977 -5.238,-7.705c-1.086,-1.983 -2.032,-4.042 -2.83,-6.158c-0.756,-2.005 -1.378,-4.061 -1.86,-6.15c-1.214,-5.251 -1.54,-10.702 -0.973,-16.061c0.401,-3.8 1.254,-7.55 2.537,-11.148c0.453,-1.269 0.959,-2.519 1.517,-3.746c0.289,-0.637 0.593,-1.266 0.908,-1.89l0.332,-0.652l153.253,-246.699l0.373,-0.515c0.242,-0.333 0.487,-0.663 0.738,-0.99c0.534,-0.698 1.088,-1.382 1.659,-2.051c1.638,-1.915 3.424,-3.702 5.338,-5.341c2.728,-2.335 5.714,-4.368 8.888,-6.046c3.014,-1.593 6.196,-2.867 9.478,-3.791c2.768,-0.779 5.605,-1.31 8.468,-1.585c0.992,-0.095 1.986,-0.16 2.982,-0.194c0.501,-0.018 1.003,-0.026 1.505,-0.029c0.126,-0.001 0.251,-0.001 0.377,0Z"/><path d="M246.554,123.073c0.138,-0.002 0.276,-0.003 0.414,-0.002c0.18,0.002 0.179,0.002 0.359,0.007c0.459,0.018 0.917,0.051 1.374,0.103c2.762,0.314 5.45,1.222 7.878,2.568c1.372,0.76 2.665,1.663 3.86,2.681c2.339,1.991 4.288,4.408 5.864,7.038c0.625,1.044 1.201,2.119 1.689,3.234c0.693,1.583 1.216,3.238 1.569,4.929c0.129,0.618 0.235,1.241 0.32,1.867c0.58,4.307 0.11,8.713 -1.069,12.882c-0.294,1.036 -0.632,2.06 -1.012,3.068c-0.137,0.366 -0.277,0.732 -0.425,1.094c-0.089,0.216 -0.185,0.429 -0.282,0.641c-0.374,0.808 -0.764,1.608 -1.143,2.413c-0.849,1.826 -1.661,3.672 -2.277,5.591c-0.207,0.644 -0.387,1.298 -0.515,1.963c-0.048,0.25 -0.089,0.503 -0.115,0.757c-0.018,0.182 -0.031,0.365 -0.024,0.548c0.001,0.047 0.004,0.094 0.011,0.14c0.018,0.112 0.053,0.224 0.086,0.332c0.059,0.196 0.13,0.388 0.207,0.577c0.307,0.751 0.719,1.459 1.185,2.123c0.498,0.709 1.065,1.371 1.694,1.966c0.525,0.497 1.096,0.949 1.713,1.325c0.759,0.464 1.604,0.824 2.494,0.927c0.303,0.035 0.604,0.031 0.908,0.017c0.328,-0.014 0.655,-0.032 0.982,-0.053c0.853,-0.055 1.704,-0.126 2.556,-0.198c1.678,-0.144 3.356,-0.294 5.034,-0.436c2.284,-0.191 4.57,-0.367 6.858,-0.505c4.374,-0.263 8.758,-0.395 13.14,-0.297c3.96,0.089 7.921,0.364 11.841,0.942c1.123,0.165 2.241,0.36 3.355,0.576c0.882,0.177 1.763,0.357 2.645,0.534c2.723,0.539 5.451,1.056 8.19,1.507c2.091,0.344 4.188,0.651 6.293,0.893c2.177,0.249 4.364,0.429 6.556,0.486c2.117,0.054 4.24,-0.008 6.344,-0.251c1.166,-0.135 2.326,-0.325 3.472,-0.58c0.329,-0.073 0.657,-0.151 0.983,-0.235c0.307,-0.078 0.613,-0.162 0.92,-0.241c0.265,-0.066 0.264,-0.066 0.53,-0.13c1.143,-0.268 2.294,-0.491 3.456,-0.665c4.214,-0.629 8.499,-0.661 12.746,-0.435c3.82,0.204 7.621,0.631 11.427,1.002c0.519,0.05 1.038,0.098 1.557,0.143c0.979,0.083 1.958,0.158 2.938,0.229c1.272,0.091 2.544,0.173 3.819,0.212c1.036,0.031 2.075,0.036 3.11,-0.023c1.192,-0.069 2.383,-0.225 3.534,-0.548c0.725,-0.204 1.43,-0.474 2.106,-0.805c0.473,-0.231 0.925,-0.498 1.384,-0.753c0.296,-0.16 0.295,-0.16 0.592,-0.318c1.038,-0.54 2.095,-1.037 3.182,-1.468c1.78,-0.707 3.625,-1.246 5.507,-1.602c2.399,-0.455 4.849,-0.611 7.288,-0.51c2.465,0.102 4.917,0.463 7.321,1.013c0.954,0.218 1.902,0.465 2.841,0.74c1.128,0.33 2.245,0.703 3.339,1.136c0.692,0.274 1.374,0.572 2.041,0.902c0.542,0.267 1.075,0.556 1.593,0.869c0.241,0.146 0.478,0.297 0.712,0.454c1.626,1.092 3.097,2.498 3.984,4.266c0.137,0.274 0.259,0.555 0.365,0.842c0.14,0.384 0.251,0.778 0.326,1.18c0.085,0.452 0.125,0.911 0.109,1.37l-0.367,1.749l-0.941,1.52c-0.081,0.091 -0.081,0.09 -0.164,0.18c-0.809,0.855 -1.69,1.635 -2.613,2.366c-0.943,0.748 -1.937,1.434 -2.964,2.063c-3.51,2.152 -7.432,3.61 -11.49,4.3c-1.654,0.282 -3.329,0.437 -5.006,0.47c-0.842,0.017 -1.683,0.002 -2.524,-0.039c-0.94,-0.05 -1.879,-0.115 -2.819,-0.174c-1.087,-0.069 -2.174,-0.137 -3.261,-0.201c-1.229,-0.071 -2.457,-0.137 -3.687,-0.175c-1.385,-0.042 -2.771,-0.051 -4.154,0.025c-1.008,0.055 -2.012,0.156 -3.009,0.313c-2.816,0.445 -5.543,1.329 -8.203,2.339c-0.593,0.225 -1.184,0.457 -1.773,0.694c-0.441,0.178 -0.88,0.362 -1.322,0.537c-0.232,0.09 -0.463,0.179 -0.696,0.265c-1.879,0.688 -3.805,1.239 -5.752,1.698c-1.592,0.376 -3.198,0.693 -4.81,0.967c-2.078,0.354 -4.168,0.637 -6.263,0.871c-2.233,0.248 -4.472,0.439 -6.714,0.585c-3.836,0.248 -7.682,0.367 -11.526,0.353c-1.465,-0.005 -2.93,-0.031 -4.393,-0.085c-1.236,-0.046 -2.472,-0.11 -3.704,-0.222c-0.332,-0.03 -0.663,-0.064 -0.994,-0.104c-0.225,-0.027 -0.45,-0.059 -0.675,-0.086c-0.16,-0.017 -0.32,-0.032 -0.481,-0.045c-1.739,-0.125 -3.487,0.002 -5.214,0.211c-2.075,0.252 -4.132,0.632 -6.183,1.031c-1.78,0.351 -3.557,0.718 -5.337,1.07c-1.987,0.389 -3.979,0.76 -5.986,1.035c-1.618,0.222 -3.248,0.383 -4.882,0.424c-0.811,0.02 -1.623,0.01 -2.434,-0.041c-0.451,-0.028 -0.9,-0.075 -1.35,-0.113c-0.243,-0.019 -0.485,-0.036 -0.728,-0.051c-2.083,-0.116 -4.18,-0.049 -6.241,0.29c-1.62,0.266 -3.223,0.698 -4.719,1.382c-0.735,0.335 -1.443,0.733 -2.101,1.202c-0.636,0.454 -1.224,0.976 -1.741,1.563c-0.545,0.62 -1.006,1.311 -1.378,2.048c-0.155,0.309 -0.295,0.626 -0.42,0.948c-0.12,0.31 -0.226,0.625 -0.334,0.939c-0.265,0.781 -0.512,1.567 -0.737,2.361c-0.398,1.406 -0.725,2.833 -0.982,4.272c-0.377,2.101 -0.636,4.219 -0.881,6.338c-0.204,1.803 -0.403,3.607 -0.609,5.41c-0.354,3.061 -0.739,6.118 -1.176,9.168c-0.207,1.444 -0.424,2.887 -0.651,4.329c-0.106,0.673 -0.217,1.346 -0.323,2.019c-0.022,0.154 -0.042,0.309 -0.06,0.463c-0.17,1.582 -0.133,3.18 -0.024,4.764c0.133,1.948 0.383,3.886 0.685,5.814c0.875,5.592 2.203,11.1 3.437,16.619c0.133,0.599 0.264,1.198 0.393,1.798c0.252,1.193 0.486,2.388 0.684,3.591c0.605,3.692 0.94,7.429 1.08,11.167c0.169,4.544 0.041,9.099 -0.345,13.63c-0.157,1.833 -0.356,3.662 -0.598,5.486c-0.088,0.667 -0.181,1.333 -0.281,1.999c-0.063,0.422 -0.129,0.843 -0.19,1.265c-0.044,0.314 -0.085,0.629 -0.125,0.943c-0.24,1.967 -0.403,3.942 -0.523,5.92c-0.104,1.721 -0.178,3.443 -0.231,5.166c-0.14,4.529 -0.146,9.061 -0.081,13.591c0.063,4.401 0.196,8.802 0.399,13.199c0.077,1.66 0.164,3.319 0.267,4.978c0.087,1.392 0.182,2.784 0.308,4.173c0.044,0.474 0.096,0.948 0.145,1.422c0.029,0.289 0.056,0.579 0.083,0.869c0.152,1.79 0.267,3.582 0.367,5.376c0.119,2.144 0.217,4.289 0.3,6.435c0.213,5.452 0.339,10.908 0.359,16.364c0.016,4.111 -0.026,8.224 -0.204,12.332c-0.067,1.519 -0.152,3.038 -0.273,4.554c-0.14,1.758 -0.328,3.514 -0.625,5.254c-0.13,0.718 -0.273,1.434 -0.407,2.151c-0.401,2.185 -0.774,4.375 -1.135,6.566c-0.395,2.394 -0.776,4.79 -1.151,7.187c-0.961,6.128 -1.887,12.261 -2.831,18.392c-0.222,1.433 -0.445,2.866 -0.67,4.298c-0.248,1.56 -0.496,3.12 -0.76,4.677c-0.101,0.595 -0.204,1.189 -0.313,1.782c-0.024,0.128 -0.048,0.255 -0.072,0.383c-0.021,0.114 -0.064,0.227 -0.064,0.343c0.001,0.057 0.008,0.113 0.016,0.169c0.045,0.287 0.133,0.566 0.232,0.838c0.148,0.407 0.326,0.802 0.515,1.191c0.264,0.543 0.553,1.074 0.846,1.603c0.303,0.546 0.613,1.089 0.918,1.634c0.162,0.29 0.322,0.581 0.48,0.873c0.934,1.749 1.787,3.596 1.999,5.59c0.085,0.797 0.066,1.606 -0.078,2.396c-0.121,0.663 -0.329,1.309 -0.62,1.917c-0.22,0.458 -0.486,0.894 -0.793,1.299c-0.264,0.348 -0.558,0.673 -0.876,0.973c-0.263,0.247 -0.542,0.476 -0.834,0.687c-0.234,0.169 -0.477,0.327 -0.726,0.474c-1.628,0.956 -3.493,1.401 -5.348,1.653c-0.43,0.056 -0.862,0.107 -1.293,0.159c-1.57,0.182 -3.143,0.349 -4.722,0.429c-1.221,0.062 -2.447,0.073 -3.667,-0.024c-1.411,-0.112 -2.82,-0.374 -4.141,-0.894c-0.904,-0.355 -1.762,-0.829 -2.529,-1.427c-0.541,-0.421 -1.036,-0.901 -1.472,-1.43c-0.344,-0.418 -0.652,-0.867 -0.92,-1.337c-0.192,-0.338 -0.363,-0.687 -0.515,-1.044c-0.919,-2.17 -1.061,-4.579 -0.88,-6.903c0.03,-0.392 0.07,-0.783 0.118,-1.174c0.062,-0.509 0.136,-1.017 0.221,-1.522c0.128,-0.757 0.278,-1.51 0.443,-2.259c0.101,-0.457 0.208,-0.913 0.32,-1.368c0.108,-0.436 0.221,-0.869 0.328,-1.305c0.048,-0.198 0.095,-0.397 0.142,-0.596c0.29,-1.279 0.535,-2.566 0.728,-3.862c0.795,-5.344 0.778,-10.795 0.183,-16.158c-0.181,-1.631 -0.418,-3.256 -0.704,-4.872c-0.098,-0.553 -0.202,-1.104 -0.31,-1.654c-0.093,-0.473 -0.192,-0.944 -0.283,-1.417c-0.029,-0.162 -0.056,-0.324 -0.082,-0.487c-0.099,-0.657 -0.179,-1.315 -0.253,-1.975c-0.08,-0.708 -0.153,-1.416 -0.222,-2.125c-0.182,-1.851 -0.34,-3.705 -0.489,-5.559c-0.383,-4.781 -0.696,-9.568 -0.94,-14.358c-0.205,-4.028 -0.363,-8.06 -0.415,-12.093c-0.023,-1.776 -0.025,-3.552 0.015,-5.328c0.031,-1.398 0.086,-2.798 0.202,-4.192c0.042,-0.509 0.092,-1.018 0.156,-1.525c0.042,-0.338 0.095,-0.674 0.137,-1.012c0.023,-0.195 0.044,-0.39 0.063,-0.586c0.108,-1.177 0.138,-2.36 0.127,-3.542c-0.01,-1.129 -0.059,-2.258 -0.13,-3.386c-0.187,-2.946 -0.53,-5.882 -0.943,-8.805c-0.516,-3.642 -1.15,-7.266 -1.857,-10.876c-0.663,-3.391 -1.389,-6.77 -2.19,-10.132c-0.14,-0.588 -0.282,-1.176 -0.43,-1.762c-0.103,-0.413 -0.212,-0.825 -0.314,-1.238c-0.078,-0.322 -0.154,-0.644 -0.228,-0.967c-0.563,-2.475 -1.074,-4.961 -1.586,-7.447l-0.036,-0.179c-0.173,0.843 -0.348,1.684 -0.523,2.526c-0.214,1.022 -0.43,2.043 -0.649,3.064c-0.196,0.902 -0.392,1.804 -0.606,2.702c-0.146,0.613 -0.308,1.222 -0.461,1.834c-0.121,0.488 -0.239,0.978 -0.356,1.467c-0.913,3.851 -1.738,7.723 -2.475,11.612c-0.716,3.774 -1.35,7.566 -1.839,11.377c-0.336,2.617 -0.606,5.245 -0.736,7.881c-0.048,0.984 -0.076,1.969 -0.072,2.955c0.004,0.89 0.032,1.781 0.107,2.668c0.026,0.316 0.059,0.631 0.099,0.946c0.026,0.203 0.057,0.406 0.085,0.609c0.039,0.293 0.039,0.293 0.074,0.587c0.199,1.8 0.281,3.611 0.322,5.421c0.043,1.922 0.037,3.844 0.009,5.765c-0.035,2.296 -0.104,4.591 -0.194,6.885c-0.099,2.545 -0.225,5.088 -0.37,7.631c-0.261,4.592 -0.579,9.182 -0.973,13.764c-0.126,1.473 -0.261,2.946 -0.414,4.416c-0.066,0.627 -0.134,1.254 -0.212,1.88c-0.066,0.53 -0.138,1.059 -0.232,1.585c-0.124,0.643 -0.257,1.284 -0.382,1.926c-0.274,1.442 -0.515,2.89 -0.71,4.345c-0.725,5.414 -0.875,10.93 -0.219,16.36c0.191,1.589 0.453,3.17 0.792,4.734c0.086,0.399 0.178,0.797 0.275,1.193c0.106,0.436 0.219,0.87 0.328,1.305c0.056,0.23 0.111,0.461 0.166,0.692c0.514,2.224 0.935,4.488 0.997,6.775c0.04,1.436 -0.069,2.886 -0.437,4.278c-0.258,0.975 -0.643,1.917 -1.169,2.778c-0.385,0.631 -0.844,1.217 -1.366,1.741c-0.377,0.378 -0.787,0.722 -1.222,1.031c-0.307,0.217 -0.627,0.416 -0.956,0.597c-1.07,0.586 -2.239,0.972 -3.433,1.207c-1.275,0.249 -2.577,0.331 -3.874,0.33c-0.41,0 -0.82,-0.009 -1.23,-0.025c-0.504,-0.019 -1.007,-0.048 -1.509,-0.085c-0.697,-0.05 -1.393,-0.113 -2.088,-0.185c-0.917,-0.096 -1.833,-0.205 -2.748,-0.318c-0.17,-0.022 -0.34,-0.045 -0.51,-0.069c-1.357,-0.205 -2.705,-0.518 -3.964,-1.074c-0.895,-0.396 -1.738,-0.914 -2.467,-1.569c-0.559,-0.504 -1.048,-1.085 -1.44,-1.727c-0.328,-0.537 -0.587,-1.114 -0.772,-1.715c-0.138,-0.451 -0.234,-0.915 -0.288,-1.384c-0.043,-0.376 -0.06,-0.755 -0.051,-1.134c0.022,-1.001 0.221,-1.99 0.53,-2.941c0.32,-0.987 0.755,-1.933 1.231,-2.854c0.126,-0.243 0.254,-0.486 0.386,-0.726c0.188,-0.345 0.378,-0.688 0.571,-1.03c0.243,-0.432 0.487,-0.863 0.728,-1.296c0.139,-0.252 0.278,-0.504 0.414,-0.758c0.315,-0.595 0.621,-1.197 0.867,-1.824c0.087,-0.222 0.165,-0.448 0.23,-0.678c0.045,-0.157 0.082,-0.321 0.095,-0.484c0.002,-0.022 0.003,-0.044 0.003,-0.066c-0.07,-0.375 -0.141,-0.749 -0.21,-1.124c-0.081,-0.458 -0.16,-0.916 -0.239,-1.374c-0.42,-2.49 -0.81,-4.985 -1.199,-7.48c-0.85,-5.496 -1.684,-10.994 -2.533,-16.49c-0.509,-3.279 -1.021,-6.557 -1.556,-9.831c-0.369,-2.255 -0.746,-4.508 -1.155,-6.756c-0.146,-0.802 -0.302,-1.603 -0.455,-2.404c-0.056,-0.312 -0.056,-0.312 -0.11,-0.625c-0.285,-1.766 -0.466,-3.547 -0.601,-5.33c-0.127,-1.68 -0.214,-3.363 -0.279,-5.046c-0.172,-4.477 -0.195,-8.96 -0.156,-13.44c0.044,-5.083 0.174,-10.166 0.382,-15.244c0.075,-1.856 0.162,-3.711 0.265,-5.564c0.091,-1.633 0.192,-3.265 0.326,-4.894c0.037,-0.451 0.078,-0.901 0.124,-1.351c0.034,-0.348 0.074,-0.695 0.109,-1.043c0.025,-0.265 0.049,-0.529 0.072,-0.794c0.142,-1.688 0.253,-3.38 0.35,-5.072c0.101,-1.753 0.186,-3.507 0.26,-5.261c0.189,-4.496 0.308,-8.995 0.35,-13.495c0.037,-3.899 0.017,-7.8 -0.103,-11.697c-0.053,-1.723 -0.127,-3.446 -0.231,-5.167c-0.093,-1.526 -0.209,-3.051 -0.369,-4.572c-0.08,-0.765 -0.171,-1.529 -0.279,-2.291c-0.092,-0.645 -0.195,-1.289 -0.288,-1.935c-0.063,-0.443 -0.124,-0.886 -0.184,-1.329c-0.197,-1.509 -0.37,-3.022 -0.512,-4.538c-0.369,-3.949 -0.541,-7.918 -0.495,-11.885c0.042,-3.649 0.267,-7.298 0.721,-10.92c0.189,-1.505 0.418,-3.006 0.698,-4.498c0.27,-1.441 0.589,-2.873 0.909,-4.303c0.385,-1.709 0.775,-3.417 1.159,-5.126c0.585,-2.626 1.15,-5.257 1.638,-7.904c0.343,-1.854 0.649,-3.717 0.886,-5.588c0.2,-1.579 0.353,-3.165 0.406,-4.756c0.042,-1.272 0.023,-2.552 -0.157,-3.814c-0.106,-0.673 -0.216,-1.346 -0.323,-2.019c-0.347,-2.229 -0.678,-4.461 -0.98,-6.696c-0.307,-2.264 -0.585,-4.531 -0.847,-6.801c-0.224,-1.962 -0.438,-3.925 -0.664,-5.887c-0.245,-2.085 -0.505,-4.169 -0.894,-6.233c-0.297,-1.574 -0.674,-3.133 -1.138,-4.666c-0.162,-0.535 -0.333,-1.066 -0.514,-1.595c-0.185,-0.544 -0.374,-1.086 -0.618,-1.607c-0.383,-0.821 -0.874,-1.591 -1.468,-2.276c-1.237,-1.428 -2.879,-2.442 -4.625,-3.131c-1.562,-0.616 -3.215,-0.988 -4.878,-1.198c-1.588,-0.201 -3.195,-0.253 -4.794,-0.187c-0.427,0.017 -0.852,0.043 -1.278,0.078c-0.27,0.022 -0.539,0.048 -0.809,0.073c-0.271,0.022 -0.27,0.022 -0.541,0.04c-0.541,0.031 -1.082,0.05 -1.623,0.051c-2.456,0.003 -4.905,-0.289 -7.327,-0.678c-3.072,-0.493 -6.115,-1.15 -9.165,-1.758c-0.52,-0.102 -1.04,-0.204 -1.561,-0.303c-1.783,-0.335 -3.571,-0.648 -5.374,-0.858c-1.307,-0.151 -2.623,-0.253 -3.939,-0.232c-0.458,0.008 -0.915,0.031 -1.371,0.077c-0.342,0.034 -0.681,0.084 -1.022,0.124c-0.268,0.03 -0.536,0.057 -0.804,0.082c-1.233,0.109 -2.468,0.176 -3.704,0.222c-1.463,0.054 -2.928,0.08 -4.393,0.085c-3.431,0.013 -6.864,-0.082 -10.289,-0.278c-4.063,-0.232 -8.121,-0.605 -12.147,-1.202c-1.776,-0.264 -3.546,-0.572 -5.302,-0.944c-1.553,-0.328 -3.097,-0.706 -4.619,-1.156c-0.972,-0.287 -1.935,-0.603 -2.883,-0.959c-0.795,-0.298 -1.577,-0.631 -2.366,-0.946c-0.416,-0.164 -0.833,-0.326 -1.25,-0.485c-1.843,-0.696 -3.71,-1.336 -5.623,-1.812c-1.231,-0.306 -2.479,-0.539 -3.739,-0.685c-2.425,-0.28 -4.873,-0.238 -7.307,-0.13c-1.883,0.083 -3.764,0.207 -5.645,0.326c-0.94,0.059 -1.879,0.124 -2.819,0.174c-0.244,0.012 -0.488,0.022 -0.732,0.03c-0.831,0.023 -1.662,0.022 -2.492,-0.012c-1.549,-0.062 -3.093,-0.229 -4.619,-0.503c-4.016,-0.723 -7.893,-2.201 -11.359,-4.358c-1.138,-0.708 -2.232,-1.488 -3.266,-2.341c-0.792,-0.653 -1.553,-1.347 -2.247,-2.104l-0.046,-0.052c-0.935,-1.509 -0.942,-1.526 -1.308,-3.265l-0.004,-0.119c0.002,-0.267 -0.002,-0.267 0.017,-0.534c0.026,-0.37 0.089,-0.738 0.177,-1.098c0.102,-0.418 0.242,-0.826 0.412,-1.22c0.126,-0.292 0.27,-0.576 0.427,-0.852c1.042,-1.82 2.691,-3.218 4.467,-4.293c0.304,-0.184 0.614,-0.359 0.928,-0.527c0.449,-0.241 0.907,-0.466 1.371,-0.677c0.639,-0.291 1.29,-0.557 1.949,-0.803c0.977,-0.364 1.971,-0.685 2.973,-0.972c0.858,-0.246 1.723,-0.469 2.593,-0.668c2.553,-0.584 5.16,-0.955 7.78,-1.029c2.62,-0.074 5.249,0.154 7.808,0.728c1.894,0.425 3.744,1.037 5.523,1.815c1.143,0.499 2.253,1.069 3.338,1.685c0.155,0.089 0.311,0.175 0.469,0.259c0.842,0.439 1.724,0.791 2.643,1.034c1.247,0.331 2.538,0.471 3.825,0.521c1.276,0.05 2.554,0.015 3.828,-0.048c1.114,-0.054 2.227,-0.132 3.339,-0.216c1.263,-0.094 2.525,-0.199 3.785,-0.319c1.727,-0.168 3.453,-0.347 5.179,-0.515c1.26,-0.12 2.521,-0.234 3.783,-0.328c4.528,-0.338 9.097,-0.45 13.617,0.067c1.428,0.163 2.849,0.389 4.254,0.693c0.444,0.096 0.886,0.2 1.326,0.311c0.373,0.095 0.743,0.197 1.115,0.291c0.197,0.048 0.393,0.095 0.59,0.141c1.074,0.242 2.157,0.434 3.249,0.573c2.161,0.275 4.345,0.354 6.522,0.307c2.179,-0.046 4.353,-0.217 6.519,-0.459c2.199,-0.246 4.389,-0.566 6.573,-0.925c2.495,-0.411 4.982,-0.875 7.464,-1.364c1.125,-0.221 2.247,-0.451 3.371,-0.677c0.278,-0.054 0.556,-0.107 0.835,-0.159c1.117,-0.203 2.238,-0.384 3.364,-0.537c3.783,-0.515 7.6,-0.758 11.415,-0.831c4.73,-0.09 9.462,0.085 14.18,0.399c1.802,0.12 3.601,0.26 5.4,0.412c1.837,0.155 3.672,0.322 5.508,0.476c0.438,0.036 0.875,0.071 1.313,0.104c0.481,0.035 0.963,0.069 1.445,0.093c0.261,0.013 0.524,0.03 0.785,0.026c0.241,-0.005 0.482,-0.03 0.719,-0.072c0.881,-0.159 1.708,-0.552 2.452,-1.041c0.583,-0.383 1.123,-0.831 1.621,-1.319c0.592,-0.58 1.127,-1.219 1.598,-1.901c0.44,-0.639 0.831,-1.318 1.125,-2.037c0.084,-0.207 0.161,-0.417 0.223,-0.631c0.027,-0.093 0.057,-0.188 0.071,-0.284c0.012,-0.085 0.012,-0.173 0.012,-0.259c-0.003,-0.218 -0.024,-0.436 -0.054,-0.652c-0.041,-0.31 -0.101,-0.618 -0.17,-0.923c-0.176,-0.782 -0.415,-1.55 -0.679,-2.307c-0.524,-1.501 -1.155,-2.964 -1.823,-4.406c-0.418,-0.902 -0.852,-1.796 -1.274,-2.696c-0.074,-0.158 -0.146,-0.317 -0.217,-0.476c-0.204,-0.468 -0.387,-0.945 -0.566,-1.422c-0.38,-1.008 -0.719,-2.032 -1.012,-3.068c-1.325,-4.686 -1.753,-9.68 -0.804,-14.48c0.333,-1.686 0.835,-3.339 1.505,-4.923c0.467,-1.103 1.021,-2.167 1.626,-3.201c1.608,-2.749 3.616,-5.277 6.046,-7.346c2.5,-2.129 5.435,-3.749 8.602,-4.632c1.53,-0.427 3.107,-0.682 4.697,-0.725c0.149,-0.002 0.185,-0.003 0.332,-0.003c0.084,0 0.169,0.004 0.254,0.003c0.067,-0.001 0.067,-0.004 0.133,0Z"/><g><rect x="217.342" y="59.496" width="9.613" height="42.702" style="fill:#fff;fill-rule:nonzero;"/><path d="M244.885,80.816c0,2.095 0.257,3.985 0.771,5.669c0.513,1.684 1.253,3.132 2.218,4.344c0.965,1.212 2.146,2.146 3.543,2.804c1.397,0.657 2.999,0.985 4.806,0.985c1.767,0 3.359,-0.328 4.776,-0.985c1.417,-0.658 2.608,-1.592 3.574,-2.804c0.965,-1.212 1.705,-2.66 2.218,-4.344c0.513,-1.684 0.77,-3.574 0.77,-5.669c0,-2.095 -0.257,-3.995 -0.77,-5.7c-0.513,-1.705 -1.253,-3.163 -2.218,-4.375c-0.966,-1.212 -2.157,-2.146 -3.574,-2.804c-1.417,-0.657 -3.009,-0.985 -4.776,-0.985c-1.807,0 -3.409,0.338 -4.806,1.016c-1.397,0.678 -2.578,1.623 -3.543,2.835c-0.965,1.212 -1.705,2.67 -2.218,4.375c-0.514,1.704 -0.771,3.584 -0.771,5.638Zm32.597,0c0,2.999 -0.37,5.7 -1.109,8.103c-0.74,2.403 -1.777,4.508 -3.112,6.316c-1.335,1.807 -2.927,3.307 -4.775,4.498c-1.849,1.191 -3.882,2.054 -6.101,2.588c0.206,0.821 0.658,1.489 1.356,2.003c0.698,0.513 1.581,0.934 2.649,1.263c1.069,0.328 2.311,0.575 3.728,0.739c1.418,0.164 2.948,0.308 4.591,0.431l-1.972,7.025c-3.204,-0.123 -5.946,-0.442 -8.226,-0.955c-2.28,-0.514 -4.211,-1.222 -5.792,-2.126c-1.582,-0.904 -2.835,-2.013 -3.759,-3.327c-0.924,-1.315 -1.633,-2.835 -2.126,-4.56c-2.547,-0.329 -4.909,-1.037 -7.086,-2.126c-2.177,-1.089 -4.067,-2.557 -5.669,-4.406c-1.602,-1.848 -2.855,-4.067 -3.759,-6.655c-0.903,-2.588 -1.355,-5.525 -1.355,-8.811c0,-3.656 0.575,-6.871 1.725,-9.644c1.15,-2.772 2.701,-5.104 4.652,-6.993c1.952,-1.89 4.211,-3.307 6.778,-4.252c2.568,-0.945 5.269,-1.417 8.103,-1.417c2.917,0 5.669,0.472 8.257,1.417c2.588,0.945 4.848,2.362 6.778,4.252c1.931,1.889 3.451,4.221 4.56,6.993c1.109,2.773 1.664,5.988 1.664,9.644Z" style="fill:#fff;fill-rule:nonzero;"/></g><g><path d="M312.556,294.793l0,-42.702l28.838,0l0,8.072l-19.226,0l0,8.381l17.069,0l0,7.887l-17.069,0l0,10.29l20.643,0l0,8.072l-30.255,0Z" style="fill:#fff;fill-rule:nonzero;"/><path d="M356.86,273.411c0,2.096 0.257,3.985 0.77,5.669c0.514,1.685 1.253,3.133 2.218,4.345c0.966,1.211 2.147,2.146 3.544,2.803c1.396,0.658 2.998,0.986 4.806,0.986c1.766,0 3.358,-0.328 4.775,-0.986c1.418,-0.657 2.609,-1.592 3.574,-2.803c0.966,-1.212 1.705,-2.66 2.219,-4.345c0.513,-1.684 0.77,-3.573 0.77,-5.669c0,-2.095 -0.257,-3.995 -0.77,-5.699c-0.514,-1.705 -1.253,-3.163 -2.219,-4.375c-0.965,-1.212 -2.156,-2.147 -3.574,-2.804c-1.417,-0.657 -3.009,-0.986 -4.775,-0.986c-1.808,0 -3.41,0.339 -4.806,1.017c-1.397,0.678 -2.578,1.623 -3.544,2.834c-0.965,1.212 -1.704,2.671 -2.218,4.375c-0.513,1.705 -0.77,3.585 -0.77,5.638Zm32.596,0c0,2.999 -0.369,5.7 -1.109,8.103c-0.739,2.404 -1.776,4.509 -3.111,6.316c-1.336,1.808 -2.927,3.307 -4.776,4.499c-1.849,1.191 -3.882,2.054 -6.1,2.588c0.205,0.821 0.657,1.489 1.355,2.002c0.699,0.514 1.582,0.935 2.65,1.263c1.068,0.329 2.311,0.575 3.728,0.74c1.417,0.164 2.947,0.308 4.591,0.431l-1.972,7.025c-3.204,-0.124 -5.946,-0.442 -8.226,-0.955c-2.28,-0.514 -4.211,-1.223 -5.793,-2.126c-1.581,-0.904 -2.834,-2.013 -3.758,-3.328c-0.925,-1.314 -1.633,-2.834 -2.126,-4.559c-2.547,-0.329 -4.909,-1.038 -7.086,-2.126c-2.178,-1.089 -4.067,-2.558 -5.669,-4.406c-1.602,-1.849 -2.855,-4.067 -3.759,-6.655c-0.904,-2.588 -1.356,-5.525 -1.356,-8.812c0,-3.656 0.575,-6.87 1.726,-9.643c1.15,-2.773 2.701,-5.104 4.652,-6.994c1.951,-1.889 4.21,-3.307 6.778,-4.251c2.567,-0.945 5.268,-1.418 8.103,-1.418c2.916,0 5.669,0.473 8.257,1.418c2.588,0.944 4.847,2.362 6.778,4.251c1.931,1.89 3.451,4.221 4.56,6.994c1.109,2.773 1.663,5.987 1.663,9.643Z" style="fill:#fff;fill-rule:nonzero;"/></g><g><path d="M127.304,294.793c-0.452,-1.479 -0.956,-2.998 -1.51,-4.56c-0.555,-1.561 -1.099,-3.122 -1.633,-4.683l-16.637,0c-0.534,1.561 -1.079,3.122 -1.633,4.683c-0.555,1.562 -1.058,3.081 -1.51,4.56l-9.982,0c1.602,-4.601 3.122,-8.852 4.56,-12.755c1.438,-3.902 2.844,-7.579 4.221,-11.03c1.376,-3.45 2.731,-6.726 4.067,-9.828c1.335,-3.101 2.721,-6.131 4.159,-9.089l9.181,0c1.397,2.958 2.773,5.988 4.129,9.089c1.355,3.102 2.721,6.378 4.097,9.828c1.376,3.451 2.783,7.128 4.221,11.03c1.438,3.903 2.958,8.154 4.56,12.755l-10.29,0Zm-11.523,-33.028c-0.206,0.617 -0.514,1.459 -0.925,2.527c-0.41,1.068 -0.883,2.3 -1.417,3.697c-0.534,1.397 -1.119,2.937 -1.756,4.621c-0.637,1.685 -1.284,3.451 -1.941,5.3l12.139,0c-0.657,-1.849 -1.294,-3.615 -1.91,-5.3c-0.616,-1.684 -1.202,-3.224 -1.756,-4.621c-0.555,-1.397 -1.038,-2.629 -1.448,-3.697c-0.411,-1.068 -0.74,-1.91 -0.986,-2.527Z" style="fill:#fff;fill-rule:nonzero;"/><path d="M149.671,273.411c0,2.096 0.257,3.985 0.771,5.669c0.513,1.685 1.252,3.133 2.218,4.345c0.965,1.211 2.146,2.146 3.543,2.803c1.397,0.658 2.999,0.986 4.806,0.986c1.767,0 3.358,-0.328 4.776,-0.986c1.417,-0.657 2.608,-1.592 3.574,-2.803c0.965,-1.212 1.704,-2.66 2.218,-4.345c0.513,-1.684 0.77,-3.573 0.77,-5.669c0,-2.095 -0.257,-3.995 -0.77,-5.699c-0.514,-1.705 -1.253,-3.163 -2.218,-4.375c-0.966,-1.212 -2.157,-2.147 -3.574,-2.804c-1.418,-0.657 -3.009,-0.986 -4.776,-0.986c-1.807,0 -3.409,0.339 -4.806,1.017c-1.397,0.678 -2.578,1.623 -3.543,2.834c-0.966,1.212 -1.705,2.671 -2.218,4.375c-0.514,1.705 -0.771,3.585 -0.771,5.638Zm32.597,0c0,2.999 -0.37,5.7 -1.109,8.103c-0.74,2.404 -1.777,4.509 -3.112,6.316c-1.335,1.808 -2.927,3.307 -4.776,4.499c-1.848,1.191 -3.882,2.054 -6.1,2.588c0.205,0.821 0.657,1.489 1.356,2.002c0.698,0.514 1.581,0.935 2.649,1.263c1.068,0.329 2.311,0.575 3.728,0.74c1.418,0.164 2.948,0.308 4.591,0.431l-1.972,7.025c-3.204,-0.124 -5.946,-0.442 -8.226,-0.955c-2.28,-0.514 -4.211,-1.223 -5.792,-2.126c-1.582,-0.904 -2.835,-2.013 -3.759,-3.328c-0.924,-1.314 -1.633,-2.834 -2.126,-4.559c-2.547,-0.329 -4.909,-1.038 -7.086,-2.126c-2.177,-1.089 -4.067,-2.558 -5.669,-4.406c-1.602,-1.849 -2.855,-4.067 -3.759,-6.655c-0.904,-2.588 -1.355,-5.525 -1.355,-8.812c0,-3.656 0.575,-6.87 1.725,-9.643c1.15,-2.773 2.701,-5.104 4.652,-6.994c1.951,-1.889 4.211,-3.307 6.778,-4.251c2.568,-0.945 5.269,-1.418 8.103,-1.418c2.917,0 5.669,0.473 8.257,1.418c2.588,0.944 4.848,2.362 6.778,4.251c1.931,1.89 3.451,4.221 4.56,6.994c1.109,2.773 1.664,5.987 1.664,9.643Z" style="fill:#fff;fill-rule:nonzero;"/></g><path d="M246.487,318.762c-1.165,5.697 -5.864,29.88 -6.993,34.183c-1.128,4.302 -7.334,30.521 -5.592,42.287c1.413,9.541 -1.209,42.985 -1.936,46.609c-0.727,3.624 -3.648,17.145 0,31.301c3.647,14.156 -1.238,14.57 -13.033,13.097c-11.794,-1.472 1.298,-10.534 0,-17.163c-1.297,-6.629 -5.217,-34.643 -7.294,-45.185c-2.077,-10.542 -0.78,-43.656 0,-50.622c0.781,-6.967 2.136,-37.172 0,-50.954c-2.135,-13.782 -1.393,-25.332 0,-32.766c1.393,-7.434 6.289,-24.525 4.84,-33.421c-3.285,-20.158 -2.294,-25.427 -5.784,-35.274c-3.489,-9.848 -14.521,-11.938 -23.366,-11.07c-8.845,0.868 -22.703,-4.813 -31.832,-3.559c-5.866,0.806 -30.845,0.89 -43.06,-4.144c-12.214,-5.035 -16.041,-4.385 -29.632,-3.553c-13.59,0.831 -20.951,-7.597 -20.951,-7.597c0,0 -0.23,-3.525 9.89,-6.195c10.121,-2.67 16.882,-0.706 22.141,2.309c5.258,3.015 10.333,2.742 18.552,2.095c8.219,-0.648 19.556,-2.611 29.234,0c9.679,2.61 20.551,1.236 36.842,-2.095c16.29,-3.331 36.512,-0.213 43.247,0c6.734,0.213 12.292,-6.835 13.25,-11.387c0.958,-4.552 -3.974,-13.412 -4.658,-15.171c-0.684,-1.759 -4.884,-11.79 0,-21.012c6.348,-11.984 16.135,-11.22 16.135,-11.22c0,0 9.788,-0.764 16.136,11.22c4.884,9.222 0.684,19.253 0,21.012c-0.684,1.759 -5.616,10.619 -4.658,15.171c0.958,4.552 6.516,11.6 13.25,11.387c6.735,-0.213 26.957,-3.331 43.247,0c16.291,3.331 27.163,4.705 36.842,2.095c9.678,-2.611 21.015,-0.648 29.234,0c8.219,0.647 13.294,0.92 18.552,-2.095c5.259,-3.015 12.02,-4.979 22.141,-2.309c10.12,2.67 9.89,6.195 9.89,6.195c0,0 -7.361,8.428 -20.951,7.597c-13.591,-0.832 -17.418,-1.482 -29.632,3.553c-12.215,5.034 -37.194,4.95 -43.06,4.144c-9.129,-1.254 -22.987,4.427 -31.832,3.559c-8.845,-0.868 -19.877,1.222 -23.366,11.07c-3.49,9.847 -2.499,15.116 -5.784,35.274c-1.449,8.896 3.447,25.987 4.84,33.421c1.393,7.434 2.135,18.984 0,32.766c-2.136,13.782 -0.781,43.987 0,50.954c0.78,6.966 2.077,40.08 0,50.622c-2.077,10.542 -5.997,38.556 -7.294,45.185c-1.298,6.629 11.794,15.691 0,17.163c-11.795,1.473 -16.68,1.059 -13.033,-13.097c3.648,-14.156 0.727,-27.677 0,-31.301c-0.727,-3.624 -3.349,-37.068 -1.936,-46.609c1.742,-11.766 -4.464,-37.985 -5.592,-42.287c-1.129,-4.303 -5.828,-28.486 -6.994,-34.183l0,0Z" style="fill:#fff;"/><path d="M246.23,123.086c0.129,-0.006 0.129,-0.007 0.258,-0.011l-0.042,-0.001c-0.072,-0.002 -0.144,0.007 -0.216,0.012Z" style="fill:#fff;"/><path d="M246.529,123.074l-0.041,0.001l0.087,0.003l0.17,0.008c-0.072,-0.005 -0.144,-0.014 -0.216,-0.012Z" style="fill:#fff;"/></g></svg>