<svg clip-rule="evenodd" fill-rule="evenodd" stroke-linejoin="round" stroke-miterlimit="1.41421" viewBox="0 0 140 140" xmlns="http://www.w3.org/2000/svg"><path d="m1409.88 479.832-1.68-.453c-.14-.038-14.22-3.903-15.04-9.981 1.88.55 11.28 3.322 13.73 4.353l.21-.408c-.14-.086-13.85-8.485-14.31-14.419 1.57.703 8.37 3.848 13.9 7.779 1.99 1.701 3.44 2.735 3.46 2.746l.28-.358c-.99-.895-2.16-1.825-3.48-2.761-4.35-3.734-11.67-11.005-12.43-18.335 2.19 2.424 11.92 12.776 20.32 15.601.75.252 1.45.481 2.1.696 7.64 2.512 9.01 2.964 8.53 11.908-.55 10.203 6.07 15.797 8.55 16.682l.99.353-.75-.735c-.04-.033-3.4-3.387-1.94-9.151l.43-1.696-.85 1.527c-.07.116-1.29 2.346-1.2 4.462-.75-1.75-1.48-5.333 1.16-10.793l-.39-.231c-.09.126-1.78 2.623-2.61 4.907.01-1.932.52-5.711 3.68-9.657l.99-1.247-1.31.917c-.11.076-2.36 1.666-3.88 3.51.46-2.237 2.15-7.919 7.6-9.851l1.62-.573-1.72.125c-.13.012-3 .231-4.82.869.63-1.113 2.7-3.702 8.46-3.702.78 0 1.61.048 2.48.142l.67.073-.49-.47c-.07-.061-1.56-1.435-5.07-1.57.76-.344 2.07-.782 3.83-.782 2.3 0 4.73.725 7.23 2.153l1.13.644-.83-.991c-.09-.102-1.85-2.16-4.61-3.209 1.82.153 4.96.916 9.08 3.813l.84.59-.51-.892c-.07-.112-1.43-2.462-4.39-3.801 1.66.153 4.88 1.035 8.29 5.135l.38.445.03-.579c.01-.076.07-1.562-1.4-3.309 1.95 1.175 5.38 3.769 6.24 7.861l.04.209.21-.028c.01-.001.41-.055 1-.055s1.44.056 2.22.313c-.34.66-1.1 1.844-1.86 1.96l-1.94.3 1.96.157c.2.015 4.77.444 5.27 5.494-.59-1.06-1.84-2.534-4.31-3.095l-.75-.172.54.556c.1.106 2.35 2.492 1.39 5.604-.24-.969-.83-2.572-2.23-3.468.03-.618.1-3.051-.85-4.012l-.51-.509.11.708c.3 1.87.71 6.873-.97 7.533l-.08.03-.04.076c-.06.121-1.61 3.078-1.29 10.288-.01.009-.17 1.23-1.57 1.032l-.08-.011-.07.045c-.02.01-1.55.971-2.56.971-.26 0-.44-.064-.57-.196-.15-.168-.21-.465-.17-.879.19-2.282-.34-4.954-1.19-5.951-.22-.256-.45-.396-.69-.415l-.27-.021.02.269c.15 1.904.21 4.096.07 4.683-.41-.235-1.44-.844-1.98-1.439-.33-.37-.27-.798-.08-1.731.12-.634.27-1.423.3-2.478.04-1.092-.54-1.586-1.13-2.105-.92-.796-1.96-1.697-1.49-5.18l.17-1.279-.6 1.141c-.04.068-3.57 6.981 2.47 16.516l.07.075c.07.04 6.62 4.075 5.77 11.932l-.02.174.17.064c.1.04 2.52.969 6 .969.58 0 1.16-.028 1.73-.078.36-.034.69-.051.99-.051 2.07 0 2.15.757 2.22 1.427.03.3.06.582.26.78.4.407 2.64 6.112 2.59 8.573-.01.532-.13.724-.2.79-.77.725-1.75 2.948-2.6 4.913-.5 1.161-.98 2.254-1.33 2.842-.42.688-.78.767-1.5.924-.76.166-1.92.416-3.76 1.626-1.55 1.027-2.51 1.239-3.05 1.239-.5 0-.75-.184-.85-.29.52-1.435 1.93-5.546 1.53-6.272-.02-.002.07-.091.49-.091.77 0 2.1.297 3.33.962.32.17.63.258.91.258 1.54 0 1.8-2.477 1.81-2.585l.04-.462-.39.246c-.01.005-.75.462-1.62.462-.97 0-1.7-.569-2.18-1.691.36.183.85.363 1.42.363.64 0 1.23-.225 1.78-.669l.32-.261-.4-.132c-.01-.004-.78-.274-1.1-.929-.14-.28-.18-.598-.11-.948.35.208.97.513 1.67.513.89 0 1.61-.456 2.18-1.352.12-.088.4-.331.54-.858.24-.887.07-2.625-2.03-5.867l-.04-.075-.09-.023c-.03-.007-.63-.167-1.57-.167-.86 0-2.16.142-3.52.818-5.44 2.724-7.85 3.295-8.92 3.295-.34 0-.61-.059-.77-.177-.45-.325-.83-.888-1.24-1.488-.86-1.256-1.83-2.678-3.88-2.845l-1.3-.104 1.18.541c.03.015 2.56 1.209 4.02 4.883.35.876.2 1.785-.43 2.708-1.64 2.416-6.19 4.288-9 4.288l-.13-.003c-.12 0-.24-.001-.38-.001-3.71 0-14.83 1.13-17.91 4.77l-.05.089c-.08.295-1.93 7.27-1.02 9.629.19.502.16.977-.08 1.454-.68 1.322-2.9 2.307-4.76 2.786-2.51.653-9.39 6.133-9.68 6.612-.37.619.31 6.874 1.46 8.118.28.304.79.666 1.43 1.125 1.99 1.422 5.29 3.782 5.62 7.317-.45.01-1.5.03-2.68.03-3.32 0-4.41-.15-4.75-.259-.2-.388-1.05-2.283.18-3.67.47-.518.46-1.347 0-2.396-.87-1.939-3.17-4.239-4.25-4.239-.11 0-.21.025-.31.07-.48-.227-2.47-1.223-3.41-2.955.3.121.68.227 1.13.227.74 0 1.45-.287 2.1-.849l.39-.339-.51-.061c-.03-.005-3-.401-3.98-2.84.59.352 1.6.794 3 .794.36 0 .71-.029 1.07-.084l1.37-.214-1.36-.241c-.03-.005-2.59-.471-3.38-2.11-.32-.654-.32-1.414 0-2.273.1.394.28.859.65 1.227.67.694 1.73.83 3.12.393 3.66-1.161 6.48-4.124 6.6-4.25.2-.134 1.21-1.446-1.46-11.093-2.44-8.809-1.19-10.178 1.07-12.659.27-.295.55-.605.84-.943l.31-.355-.47-.025s-.05-.002-.15-.002c-.78 0-3.47.17-5.33 2.354-1.63 1.905-2.14 4.804-1.53 8.611 1.13 7.049.32 9.238-.25 9.917-.05.053-.1.095-.14.134.4-.779.82-2.311-.25-4.401l-.3-.572-.13.628c-.02.099-2.19 9.818-8.61 9.818-1.7 0-3.57-.674-5.57-2.015.67.173 1.5.328 2.38.328 1.84 0 3.24-.665 4.19-1.975l.32-.456-.54.093c-.01.002-.81.132-1.99.132-2.36 0-5.66-.497-8-2.873-1.55-1.563-2.45-3.743-2.69-6.495.44 1.212 1.2 2.73 2.42 3.59l.73.518-.39-.803c-.02-.039-1.8-3.78.09-7.461 1.62-3.173 1.56-4.716 1.13-5.742.44.357.98 1.145.93 2.869l-.02.566.41-.394c.02-.03 2.8-2.799.33-7.563.68.139 1.86.724 2.04 3.136l.05.733.38-.635c.03-.049 2.76-4.81-.67-8.731.99.204 2.89 1.024 3.45 4.289l.06.317.28-.158c.05-.03 1.33-.759 1.75-2.493.39-1.621-.11-3.537-1.48-5.697.59.122 1.61.463 2.43 1.382 1 1.133 1.42 2.811 1.24 4.983l-.08.874.49-.726c.04-.056 3.47-5.262-1.52-9.714 1.64.736 4.24 2.28 5.1 4.93.84 2.585-.13 5.663-2.88 9.148-6.1 7.734-5.27 11.011-4.88 11.832.32.643.88 1.011 1.56 1.011.81 0 1.69-.533 2.35-1.423.68-.907 1.16-2.552 1.72-4.455 1.29-4.374 2.89-9.818 7.75-9.818 1.39 0 3 .447 4.77 1.329l.11.054.1-.056c.02-.004 1.2-.622 2.88-.622 1.06 0 2.09.241 3.07.714.37.18.84.272 1.38.272 4.19 0 13.48-5.657 13.56-11.705l.02-.911-.45.795c-.03.065-3.42 6.103-5.58 7.236.17-1.133.68-4.474 1.39-6.564.22-.513.33-.837.33-.837l-.42-.175c-.11.245-.23.534-.34.861-.69 1.683-3.12 7.108-5.94 8.015.21-1.122.97-4.76 2.5-7.821.23-.418.36-.676.36-.676l-.41-.217c-.12.224-.24.455-.36.687-1.95 3.609-4.55 7.483-6.13 7.819-.13-.649-.31-3.185 3.11-7.666l.11-.144-.36-.279-.11.145c-.51.648-4.97 6.268-8.07 6.449.24-.866 1.32-3.8 5.75-7.797l-.3-.346c-.07.056-6.54 5.603-10.87 5.603-.1 0-.19-.001-.28-.007.64-1.03 2.86-4.427 5.96-6.884 1.57-.914 2.7-1.73 2.71-1.739l-.24-.392c-.91.449-1.84 1.047-2.76 1.77-2.16 1.259-5.27 2.782-7.68 2.782-.55 0-1.03-.079-1.45-.236.84-.871 3.94-3.951 7.27-5.738 1.4-.525 2.41-1.014 2.42-1.018l-.17-.426c-.77.228-1.6.578-2.46 1.039-1.75.66-4.32 1.46-6.45 1.46-1.55 0-2.64-.428-3.25-1.275 1.37-.534 7.85-3.013 11.38-3.721l-.06-.454c-.01.001-1.39.095-3.25.095-3.58 0-9.7-.346-10.76-2.657.1-.25 1.12-2.1 11.45-2.416v-.458c-.12-.009-12.43-.819-13.71-5.75 1.78.177 10.64 1.041 13.43 1.041zm6.89 64.738c.5.274 1.51.707 2.85.707.59 0 1.2-.088 1.79-.26l.21-.057.07.195c.02.025.89 2.325-.61 3.775.35.09.87.197 1.4.197.66 0 1.12-.169 1.38-.497l.25-.332.14.39c.21.565.34 1.732-.43 2.533.12.022.26.042.41.042.53 0 .93-.202 1.21-.598.15-.222.34-.272.46-.272.57 0 1.02.96 1.21 1.853.22 1.069.13 2.33-.64 3.087 1.32.044 3.69.332 4.7 1.749.51.718.61 1.622.29 2.689.51.256 2.17.999 4.43.999 1 0 2-.144 2.97-.428-.22-.897-1.45-4.696-6.96-6.507-.08-.03-2.06-.777-2.79-3.417-.35-1.289-1.22-2.154-2.14-3.072-.84-.83-1.7-1.692-2.17-2.906-1.06-2.673 4.3-5.649 7.51-7.429.62-.347.97-.731 1.05-1.169.18-.918-.79-2.104-1.82-3.359-.67-.816-1.36-1.661-1.88-2.571-1.75-3.054-2.04-4.369-.49-7.074-1.26.143-4.91.75-6.6 3.094-.53 1.934-1.71 7.045-.91 8.047l.04.088c.02.074 1.83 7.433-4.93 10.503zm54.45-42.248c.28.152.68.312 1.13.312.48 0 .94-.184 1.35-.545l.16-.141.16.153c.02.025.62.628.52 1.268-.05.333-.27.604-.65.805-.72.386-1.27 1.43-1.35 2.176-.03.285 0 .507.08.577.38.272 3.27 2.381 4.28 3.814.26-1.458.78-5.099-.3-6.853-.6-.97-.8-1.791-.6-2.438.15-.48.49-.717.62-.794 0-.215-.38-1.624-7.49-7.232l-.05-.044-.02-.067c-.01-.027-.88-2.68-2.39-2.68-.25 0-.51.073-.77.215-.4.22-.9.475-1.47.759-2.51 1.265-6.28 3.163-7.87 5.475.32.598 1.56 3.169 1.08 6.185l1.59.51c.73-.744 5.29-5.494 6.9-9.326l.09-.214.21.094c.14.061 3.52 1.57 3.84 3.801.12.868-.24 1.716-1.07 2.523.77.051 2.16-.015 2.72-.924l.25-.41.16.455c.02.04.33.968-.12 1.752-.21.359-.54.626-.99.794z" fill="#532d82" transform="translate(-1359.2147 -435.1007)"/><path d="m-.003447-.0005h140.000230815v140.000230815h-140.000230815z" fill="none" stroke-width=".935299"/></svg>